<?xml version="1.0" encoding="UTF-8" standalone="no"?>
<svg
   version="1.1"
   id="Layer_1"
   x="0px"
   y="0px"
   viewBox="0 0 1080 1080"
   xml:space="preserve"
   sodipodi:docname="People-For-Peace-Mark-III-v1.1.svg"
   width="1080"
   height="1080"
   inkscape:version="1.2.2 (1:1.2.2+202305151914+b0a8486541)"
   inkscape:export-filename="People-For-Peace-Mark-III-v1.1.png"
   inkscape:export-xdpi="96"
   inkscape:export-ydpi="96"
   xmlns:inkscape="http://www.inkscape.org/namespaces/inkscape"
   xmlns:sodipodi="http://sodipodi.sourceforge.net/DTD/sodipodi-0.dtd"
   xmlns="http://www.w3.org/2000/svg"
   xmlns:svg="http://www.w3.org/2000/svg"
   xmlns:rdf="http://www.w3.org/1999/02/22-rdf-syntax-ns#"
   xmlns:cc="http://creativecommons.org/ns#"
   xmlns:dc="http://purl.org/dc/elements/1.1/"><title
   id="title4382">People For Peace Mark III lidev</title><defs
   id="defs404" /><sodipodi:namedview
   id="namedview402"
   pagecolor="#ffffff"
   bordercolor="#000000"
   borderopacity="0.25"
   inkscape:showpageshadow="2"
   inkscape:pageopacity="0.0"
   inkscape:pagecheckerboard="0"
   inkscape:deskcolor="#d1d1d1"
   showgrid="false"
   inkscape:zoom="0.55813146"
   inkscape:cx="481.06946"
   inkscape:cy="540.19532"
   inkscape:window-width="1280"
   inkscape:window-height="967"
   inkscape:window-x="0"
   inkscape:window-y="0"
   inkscape:window-maximized="1"
   inkscape:current-layer="layer1" />

     <metadata
   id="metadata248">
    <rdf:RDF>
      <cc:Work
   rdf:about="">
        <dc:date>2023-05-31 5:44 AM</dc:date>
        <dc:description>People For Peace Mark III - www.openclipart.org/detail/265177/people-for-peace-mark-iii</dc:description>
        <cc:license
   rdf:resource="" />
      <dc:title>People For Peace Mark III lidev</dc:title></cc:Work>
    </rdf:RDF>
  </metadata>
 <g
   inkscape:groupmode="layer"
   id="layer1"
   inkscape:label="Layer 1"
   transform="matrix(0.71812309,0,0,0.71813047,-8.6715118e-7,1.33713e-6)"><g
     id="g6997"
     transform="translate(-120.94624,-121.03453)"><g
   id="g5146"
   inkscape:label="ellipse-g5146"
   style="display:inline"
   transform="matrix(-0.90650459,0,0,-0.91612918,1664.2002,1672.7559)"><ellipse
     style="display:inline;fill:#000000;fill-opacity:1;stroke:none;stroke-width:1.61038;stroke-linecap:round;stroke-linejoin:round"
     id="path685"
     cx="872.90649"
     cy="872.987"
     rx="829.51617"
     ry="820.79309" /><ellipse
     style="display:inline;fill:#ff6600;fill-opacity:1;stroke:none;stroke-width:1.58732;stroke-linecap:round;stroke-linejoin:round"
     id="ellipse2023"
     cx="872.90649"
     cy="872.987"
     rx="818.71924"
     ry="807.95111"
     inkscape:label="ellipse-2023" /></g><g
   id="g2227"
   inkscape:label="xopo-g2227"
   style="display:inline"
   transform="matrix(-0.90650459,0,0,-0.91612918,1664.2,1672.7559)"><g
     id="Fills"
     style="display:inline">
	<g
   id="g398">
	<g
   id="g3745"
   style="display:inline"
   transform="translate(2.1190268e-4,5.4325918e-5)"><path
     d="m 872.906,274.418 c -330.052,0 -598.569,268.517 -598.569,598.569 0,330.052 268.517,598.569 598.569,598.569 330.052,0 598.569,-268.517 598.569,-598.569 0,-330.052 -268.517,-598.569 -598.569,-598.569 z m 490.673,598.569 c 0,115.884 -40.408,222.494 -107.839,306.538 L 926.855,850.641 V 385.294 c 245.265,26.949 436.724,235.368 436.724,487.693 z M 818.958,1360.68 c -94.92,-10.43 -181.768,-48.038 -252.59,-104.859 l 252.59,-252.592 z m 107.897,-357.451 252.59,252.592 c -70.821,56.821 -157.67,94.43 -252.59,104.859 z M 818.958,385.294 V 850.642 L 490.072,1179.526 C 422.641,1095.482 382.233,988.872 382.233,872.988 382.234,620.662 573.693,412.243 818.958,385.294 Z"
     id="path2"
     style="display:inline" /><path
     d="m 872.90601,1471.556 c 330.05199,0 598.56899,-268.5171 598.56899,-598.56902 0,-330.05201 -268.517,-598.56901 -598.56899,-598.56901 -330.05203,0 -598.56899,268.517 -598.56899,598.56901 0,330.05192 268.51696,598.56902 598.56899,598.56902 z M 382.23305,872.98698 c 0,-115.884 40.40801,-222.49401 107.83892,-306.538 L 818.95701,895.33297 V 1360.68 C 573.69206,1333.7309 382.23305,1125.312 382.23305,872.98698 Z m 544.62097,-487.693 c 94.91998,10.43 181.76798,48.03799 252.58998,104.85899 L 926.85402,742.74498 Z M 818.95701,742.74498 566.367,490.15297 c 70.82103,-56.821 157.67004,-94.42999 252.59001,-104.85899 z M 926.85402,1360.68 V 895.33197 L 1255.74,566.44798 c 67.431,84.04399 107.839,190.654 107.839,306.538 -10e-4,252.32602 -191.46,460.74492 -436.72498,487.69402 z"
     id="path3160"
     style="display:inline" /><path
     d="m 267.98184,872.98699 c 0,326.58451 271.36801,592.28061 604.92418,592.28061 333.55628,0 604.92418,-265.6961 604.92418,-592.28062 0,-326.58459 -271.3679,-592.28059 -604.92418,-592.28059 -333.55617,0 -604.92418,265.696 -604.92418,592.2806 z m 604.92418,-485.5181 c 117.11436,0 224.85628,39.9835 309.79258,106.706 L 850.32277,819.60476 H 380.03503 C 407.27026,576.91649 617.902,387.46889 872.90602,387.46889 Z M 1365.777,926.36823 c -10.5408,93.92277 -48.548,179.85837 -105.9723,249.93637 L 1004.5308,926.36823 Z M 1004.5308,819.60476 1259.8047,569.66839 c 57.4243,70.077 95.4325,156.0136 105.9723,249.93637 z M 380.03503,926.36823 H 850.32378 L 1182.6996,1251.799 c -84.9363,66.7226 -192.6782,106.7061 -309.79257,106.7061 -255.00503,-10e-4 -465.63677,-189.4486 -492.872,-432.13687 z"
     id="path3162" /></g><g
   id="g396"
   transform="translate(0,1.0915491e-4)"
   style="display:inline">
			<g
   id="g16">
				<g
   id="g8">
					<path
   d="m 1559.888,943.756 c 54.22,-11.188 48.306,-9.331 16.31,-12.945 -32.34,1.78 -70.044,3.096 -102.432,3.566 -8.098,0.108 -6.128,-7.85 -5.673,-12.945 0.766,-7.547 4.582,-3.117 97.154,-9.707 -103.592,-18.632 -95.359,-11.738 -95.382,-23.917 0.018,-1.633 -0.893,-9.649 6.897,-8.676 127.164,15.984 77.492,14.883 125.222,14.772 6.733,-0.015 -30.047,-11.839 -38.593,-14.607 -9.034,-2.951 -4.825,-14.682 3.971,-12.115 65.925,19.227 64.828,19.56 67.888,24.203 3.188,4.832 2.825,6.929 0.749,39.605 -1.078,13.164 -6.44,14.199 -73.616,25.193 -9.052,1.495 -11.882,-10.516 -2.495,-12.427 z"
   id="path4" />
					<path
   d="m 1655.108,935.342 c -9.779,-0.814 -17.464,-11.289 -14.645,-23.16 4.288,-19.006 29.422,-18.832 32.209,1.62 1.411,11.25 -6.642,22.445 -17.564,21.54 z"
   id="path6" />
				</g>
				<g
   id="g14">
					<path
   d="m 1542.1,1026.888 c -0.547,-9.027 8.054,-7.286 29.641,-9.213 31.324,-2.754 29.46,-0.878 7.399,-8.996 -7.736,-2.813 -8.637,0.742 -68.336,4.95 -11.143,0.781 -0.034,-17.517 -3.985,-18.81 -41.653,-13.67 -46.599,-13.032 -45.548,-19.353 2.089,-12.63 0.296,-10.56 28.788,-9.8 23.191,0.562 22.847,0.802 23.067,-0.778 1.578,-11.259 1.264,-8.902 1.58,-11.68 0.349,-3.071 3.795,-4.901 6.83,-3.611 57.791,24.948 55.233,27.097 62.992,26.966 13.866,-0.284 19.342,-0.132 17.469,-1.017 -43.647,-20.573 -50.215,-19.406 -46.579,-28.28 1.638,-4.03 5.687,-5.136 9.093,-3.654 20.294,8.961 33.746,15.099 57.411,26.836 10.925,5.49 8.951,9.358 5.597,29.828 -4.807,28.667 5.567,26.157 -78.07,33.018 -3.395,0.268 -7.072,-1.716 -7.349,-6.406 z"
   id="path10" />
					<path
   d="m 1643.116,1022.08 c -13.911,-2.686 -18.61,-23.136 -6.189,-33.591 7.491,-6.259 17.971,-4.865 23.349,3.503 8.426,13.006 -1.942,33.027 -17.16,30.088 z"
   id="path12" />
				</g>
			</g>
			<g
   id="g30">
				<g
   id="g22">
					<path
   d="m 1527.05,1094.857 c 8.309,0.158 47.599,1.144 41.193,-1.105 -44.309,-15.561 -3.437,-1.648 -123.032,-27.289 -3.534,-0.762 -5.821,-4.084 -4.859,-7.051 5.33,-16.392 -5.838,-10.831 99.084,5.428 -96.099,-40.938 -90.402,-32.794 -87.698,-44.52 0.348,-1.432 1.24,-9.577 8.67,-6.885 120.422,43.733 71.871,31.613 118.821,42.205 7.676,1.735 -34.256,-22.433 -35.743,-23.829 -6.092,-5.721 0.641,-13.799 7.816,-9.905 74.616,40.838 66.613,31.05 52.792,77.502 -3.802,12.083 -8.458,12.497 -77.382,8.121 -9.137,-0.566 -9.266,-12.908 0.338,-12.672 z"
   id="path18" />
					<path
   d="m 1612.226,1099.29 c -9.91,-21.237 19.845,-39.183 29.643,-18.96 10.126,21.071 -19.465,40.557 -29.643,18.96 z"
   id="path20" />
				</g>
				<g
   id="g28">
					<path
   d="m 1491.098,1171.888 c 1.612,-8.91 9.353,-5.312 30.936,-2.344 31.117,4.314 29.014,5.809 9.25,-7.098 -6.895,-4.465 -8.238,-1.176 -67.701,-10.487 -3.25,-0.51 -5.221,-3.895 -3.914,-6.694 6.842,-14.634 9.593,-9.488 -14.31,-23.611 -17.871,-10.581 -23.77,-12.225 -21.495,-17.983 1.906,-4.673 3.034,-10.189 9.345,-8.526 45.385,12.037 43.062,11.119 43.549,9.838 7.195,-18.923 3.232,-20.035 35.836,5.094 25.722,19.723 25.054,20.984 31.141,22.275 13.579,2.828 18.876,4.199 17.249,2.918 -38.046,-29.911 -44.572,-30.184 -39.071,-37.99 2.532,-3.605 6.734,-3.703 9.683,-1.526 59.535,43.955 58.156,45.405 55.032,53.607 -12.527,32.89 -15.14,39.158 -24.029,38.339 -24.228,-2.227 -44.473,-4.841 -65.783,-7.925 -3.518,-0.521 -6.548,-3.464 -5.718,-7.887 z"
   id="path24" />
					<path
   d="m 1590.632,1189.844 c -13.239,-5.861 -12.651,-27.047 1.504,-34.13 8.648,-4.406 18.578,-0.777 21.972,8.644 5.319,15.105 -9.682,31.593 -23.476,25.486 z"
   id="path26" />
				</g>
			</g>
			<g
   id="g44">
				<g
   id="g36">
					<path
   d="m 1461.186,1234.752 c 7.551,1.894 46.227,11.817 40.415,8.146 -29.791,-18.815 -8.081,-6.763 -67.174,-32.947 -48.645,-21.478 -53.353,-22.883 -49.768,-29.102 8.751,-14.819 -3.219,-11.87 95.324,27.422 -82.175,-60.152 -81.385,-51.831 -75.463,-63.016 0.739,-1.429 3.363,-9.052 9.971,-4.783 107.82,69.768 62.907,46.886 106.328,67.743 6.106,2.933 -22.135,-23.962 -28.385,-29.935 -6.818,-6.549 1.893,-15.238 8.758,-9.18 52.429,46.586 50.099,46.719 50.697,51.324 0.552,4.663 0.508,6.982 -16.616,36.008 -6.489,10.995 -11.068,10.239 -77.188,-9.364 -8.783,-2.59 -6.166,-14.676 3.101,-12.316 z"
   id="path32" />
					<path
   d="m 1543.263,1258.159 c -3.257,-15.232 12.707,-28.757 25.381,-22.139 6.148,3.21 8.997,10.174 8.013,17.302 -2.788,20.035 -29.471,23.955 -33.394,4.837 z"
   id="path34" />
				</g>
				<g
   id="g42">
					<path
   d="m 1408.958,1301.835 c 3.702,-8.72 7.55,-3.419 53.005,12.825 0.329,0.119 0.616,-0.307 0.376,-0.558 -21.855,-22.643 -2.933,-9.208 -75.716,-37.776 -3.057,-1.222 -4.218,-4.956 -2.347,-7.417 l 7.168,-9.361 c 0.954,-1.31 0.937,-0.95 -15.854,-16.857 -14.879,-14.122 -20.59,-17.363 -16.95,-22.338 2.939,-4.018 5.175,-9.305 11,-6.255 41.649,21.883 39.543,20.499 40.31,19.336 11.329,-17.215 7.873,-18.402 33.752,12.933 20.72,25.005 19.778,26.072 25.432,28.698 12.646,5.805 17.44,8.288 16.146,6.685 -9.43,-11.658 -20.645,-25.017 -30.481,-36.297 -4.563,-6.709 2.036,-12.547 7.16,-11.072 2.113,0.61 1.941,-0.366 24.632,27.646 28.954,35.551 27.397,29.317 10.904,53.11 -15.36,21.126 -12.994,21.145 -32.199,14.758 -16.754,-5.653 -34.119,-11.89 -52.492,-19.077 -3.314,-1.288 -5.61,-4.842 -3.846,-8.983 z"
   id="path38" />
					<path
   d="m 1495.801,1330.082 c -2.381,-23.744 32.232,-30.671 34.737,-8.157 2.691,23.695 -32.362,32.055 -34.737,8.157 z"
   id="path40" />
				</g>
			</g>
			<g
   id="g58">
				<g
   id="g50">
					<path
   d="m 1365.848,1356.51 c 7.577,3.866 42.414,21.734 37.62,16.923 -20.399,-20.462 -13.459,-14.441 -29.775,-26.17 -80.533,-58.637 -75.759,-54.286 -68.017,-62.86 8.395,-9.041 -0.198,-7.797 84.383,50.459 -69.425,-79.923 -68.698,-67.49 -57.282,-80.975 4.886,-5.773 10.776,2.656 19.643,11.835 19.841,20.645 41.082,43.545 58.871,63.368 25.738,20.469 26.367,23.394 1.094,-15.348 -3.842,-5.851 -3.93,-5.893 -4.303,-6.855 -2.499,-6.469 3.508,-10.277 8.245,-8.119 3.833,1.757 31.771,44.12 33.658,46.984 12.179,18.636 12.052,17.402 -16.715,48.322 -9.303,9.994 -14.866,6.204 -73.198,-26.265 -8.011,-4.496 -2.619,-15.587 5.776,-11.299 z"
   id="path46" />
					<path
   d="m 1445.488,1409.417 c -10.357,-9.717 -3.061,-29.243 12.516,-31.244 9.544,-1.273 17.531,5.422 17.612,15.22 0.053,15.688 -19.241,26.24 -30.128,16.024 z"
   id="path48" />
				</g>
				<g
   id="g56">
					<path
   d="m 1300.072,1410.379 c 5.52,-7.771 8.061,-1.676 48.824,24.205 1.757,1.125 -1.34,-3.483 -8.489,-15.294 -4.051,-6.636 -4.756,-3.496 -56.505,-38.771 -9.447,-6.515 11.12,-13.405 8.639,-17.187 -24.779,-37.85 -28.306,-39.334 -23.523,-43.578 3.958,-3.507 7.297,-7.774 12.135,-3.647 37.732,32.224 33.596,29.075 36.36,26.505 1.916,-1.768 1.656,-1.542 7.155,-6.915 2.212,-2.16 6.063,-1.422 7.621,1.474 37.23,69.282 20.219,51.081 46.133,70.946 4.327,3.295 -23.321,-42.259 -21.587,-47.739 1.062,-3.289 5.74,-6.323 9.845,-4.063 4.361,2.406 30.301,58.32 32.169,62.392 4.022,8.728 -3.104,13.296 -24.121,31.937 -11.438,10.314 -8.149,12.698 -72.875,-30.629 -3.001,-2.033 -4.363,-6.017 -1.781,-9.636 z"
   id="path52" />
					<path
   d="m 1378.532,1457.173 c 2.834,-23.299 38.079,-23.146 35.636,-0.301 -2.536,23.734 -38.782,24.019 -35.636,0.301 z"
   id="path54" />
				</g>
			</g>
			<g
   id="g72">
				<g
   id="g64">
					<path
   d="m 1245.943,1454.175 c 42.52,35.419 37.435,32.001 20.305,4.709 -21.561,-24.192 -46.095,-52.866 -66.65,-77.904 -5.131,-6.266 2.32,-9.663 6.598,-12.473 6.268,-4.236 5.386,1.755 68.156,69.927 -50.243,-93.716 -51.661,-81.202 -37.986,-91.705 2.481,-1.901 6.374,-0.854 8.263,2.23 16.904,27.645 35.93,60.232 51.699,88.535 7.489,9.342 17.697,22.846 15.997,17.859 -13.012,-38.476 -18.603,-44.668 -10.242,-47.436 6.911,-2.298 8.416,0.793 31.737,63.723 2.176,5.931 -0.436,12.713 -5.433,16.291 -23.083,16.829 -32.266,25.711 -42.197,17.579 -6.23,-5.135 -24.84,-20.296 -48.404,-41.629 -6.801,-6.14 0.804,-15.838 8.157,-9.706 z"
   id="path60" />
					<path
   d="m 1311.893,1523.411 c -11.99,-17.901 17.427,-38.823 30.401,-21.619 13.233,17.548 -18.164,39.891 -30.401,21.619 z"
   id="path62" />
				</g>
				<g
   id="g70">
					<path
   d="m 1169.854,1492.089 c 6.639,-5.902 10.212,1.225 25.672,17.419 15.14,15.787 17.735,18.541 17.12,16.667 -10.358,-31.215 0.877,-9.406 -51.929,-66.819 -2.227,-2.423 -1.661,-6.297 1.105,-7.671 6.346,-3.149 4.077,-1.986 10.491,-5.365 1.439,-0.76 1.121,-0.808 -6.991,-22.022 -7.368,-19.323 -10.998,-24.377 -5.63,-27.464 4.415,-2.471 8.733,-6.075 12.637,-0.845 27.913,37.353 26.602,35.598 27.953,34.799 9.383,-5.545 7.421,-4.364 10.115,-6.049 2.62,-1.638 6.201,-0.081 7.083,3.095 16.522,60.81 13.238,60.086 18.172,66.069 8.864,10.667 12.157,15.044 11.683,13.028 -5.29,-22.349 -9.626,-37.964 -11.81,-45.925 -1.426,-9.435 11.187,-11.592 13.411,-3.306 3.285,12.033 8.61,33.324 13.212,54.27 4.214,19.509 7.437,16.963 -33.153,38.392 -8.954,4.718 -11.155,2.893 -59.576,-48.545 -2.454,-2.623 -2.945,-6.807 0.435,-9.728 z"
   id="path66" />
					<path
   d="m 1236.576,1568.087 c -6.626,-12.66 6.644,-28.997 22.407,-25.775 9.563,1.958 15.005,11.021 11.813,20.443 -5.046,14.907 -27.136,18.868 -34.22,5.332 z"
   id="path68" />
				</g>
			</g>
			<g
   id="g86">
				<g
   id="g78">
					<path
   d="m 1107.313,1522.666 c 4.806,6.286 28.807,38.007 26.551,31.533 -11.618,-33.329 -2.107,-10.301 -32.053,-67.615 -28.582,-54.537 -29.29,-50.541 -14.13,-56.308 7.04,-2.689 5.02,3.261 50.826,83.368 -29.047,-104.779 -31.902,-90.63 -16.597,-97.806 2.827,-1.323 6.377,0.548 7.534,3.978 38.306,113.81 20.868,77.528 41.06,119.204 0.315,0.65 1.351,0.348 1.277,-0.369 -4.437,-42.592 -6.404,-43.042 -3.37,-46.581 2.073,-2.381 6.556,-3.017 9.375,0.369 1.707,2.056 1.606,3.209 3.408,13.556 10.688,62.494 11.329,62.553 -5.431,69.881 -8.419,3.676 -22.553,9.358 -23.971,9.883 -11.855,4.519 -14.957,1.277 -54.582,-55.411 -5.236,-7.467 4.297,-15.339 10.103,-7.682 z"
   id="path74" />
					<path
   d="m 1156.968,1592.077 c 10.212,-20.66 43.117,-9.286 33.292,11.337 -10.129,21.241 -43.901,9.743 -33.292,-11.337 z"
   id="path76" />
				</g>
				<g
   id="g84">
					<path
   d="m 1024.678,1542.584 c 8.611,-4.502 8.6,2.71 33.441,43.067 1.099,1.784 0.3,-3.793 -1.002,-17.504 -0.804,-8.15 -4.213,-7.193 -34.002,-59.471 -1.626,-2.857 -0.21,-6.515 2.79,-7.248 6.935,-1.69 8.693,-2.089 11.427,-2.858 1.563,-0.424 1.289,-0.423 -1.888,-23.048 -3.752,-26.903 -5.358,-26.183 3.545,-28.849 9.805,-2.926 6.425,-3.086 27.345,42.212 1.755,3.813 18.597,-9.583 19.135,1.781 2.538,62.461 -0.559,61.471 2.945,68.467 6.265,12.398 8.481,17.359 8.468,15.293 -0.349,-48.332 -4.181,-53.649 5.338,-54.252 4.453,-0.284 7.099,3.016 7.225,6.605 0.647,17.246 0.957,38.891 0.746,55.85 -0.3,20.09 2.279,18.32 -35.805,28.643 -15.286,4.133 -12.947,7.964 -52.31,-59.29 -1.78,-3.065 -1.379,-7.275 2.602,-9.398 z"
   id="path80" />
					<path
   d="m 1074.967,1618.793 c 12.969,-19.942 44.47,-3.877 32.285,15.279 -12.763,20.286 -45.331,4.799 -32.285,-15.279 z"
   id="path82" />
				</g>
			</g>
			<g
   id="g100">
				<g
   id="g92">
					<path
   d="m 956.879,1558.392 c 3.18,6.989 19.567,43.492 18.817,36.678 -3.853,-35.024 0.253,-10.535 -16.1,-73.065 -15.924,-60.583 -16.706,-55.871 -1.16,-58.054 7.419,-1.034 3.758,2.939 30.867,92.631 -4.213,-102.514 -9.877,-95.99 2.24,-98.298 1.234,-0.22 9.17,-3.036 9.955,4.83 12.645,127.642 2.527,78.323 13.301,125.362 0.161,0.704 1.238,0.639 1.327,-0.077 4.981,-40.433 2.686,-48.366 11.445,-47.115 7.524,0.953 5.988,7.497 3.597,39.279 -2.351,31.8 -1.267,41.559 -14.78,44.136 -47.518,9.082 -39.769,16.264 -71.072,-61.07 -3.45,-8.481 7.631,-13.961 11.563,-5.237 z"
   id="path88" />
					<path
   d="m 989.727,1637.162 c 10.039,-12.156 30.44,-7.844 33.136,6.047 1.338,6.893 -2.443,13.455 -8.535,17.067 -17.969,10.237 -36.918,-8.355 -24.601,-23.114 z"
   id="path90" />
				</g>
				<g
   id="g98">
					<path
   d="m 871.856,1559.42 c 8.585,-2.41 8.696,5.613 15.547,26.838 9.616,29.87 7.345,28.726 10.404,5.26 1.018,-8.038 -3.211,-10.365 -19.949,-65.547 -3.322,-10.967 17.093,-3.792 17.493,-8.05 4.714,-52.295 1.029,-48.163 14.86,-49.056 6.619,-0.422 5.455,5.214 14.261,47.444 0.856,4.084 20.281,-5.155 18.271,6.016 -14.415,77.006 -15.891,53.426 -8.273,84.206 0.423,1.686 1.244,-1.678 5.584,-23.253 4.469,-22.086 3.668,-29.877 12.417,-28.451 8.616,1.402 6.01,8.247 -1.088,40.421 -10.158,45.319 -3.48,40.424 -46.344,42.166 -15.788,0.6 -14.303,5.011 -37.802,-69.423 -1.061,-3.398 0.276,-7.402 4.619,-8.571 z"
   id="path94" />
					<path
   d="m 903.933,1644.873 c 16.907,-16.512 44.242,6.021 28.014,22.1 -16.901,16.879 -45.21,-5.417 -28.014,-22.1 z"
   id="path96" />
				</g>
			</g>
			<g
   id="g114">
				<g
   id="g106">
					<path
   d="m 801.712,1558.267 c 0.81,1.825 9.913,49.256 10.787,41.523 3.949,-34.957 2.57,-10.208 0.388,-74.851 -2.203,-61.427 -4.585,-58.292 11.655,-56.842 7.547,0.766 3.118,4.595 9.708,97.154 18.635,-103.61 11.741,-95.358 23.917,-95.381 10.857,0.122 12.802,-8.055 -6.152,108.369 0.028,11.963 -0.416,28.907 1.365,23.974 5.637,-15.731 13.981,-40.365 13.981,-40.365 3.398,-5.841 10.224,-3.735 11.49,1.337 0.644,2.592 0.051,3.589 -2.823,13.693 -20.614,70.536 -12.43,62.213 -61.043,59.126 -12.907,-1.057 -14.083,-5.734 -25.193,-73.616 -1.306,-7.913 8.466,-11.953 11.92,-4.121 z"
   id="path102" />
					<path
   d="m 810.633,1655.113 c 0.817,-9.818 11.329,-17.454 23.16,-14.646 18.922,4.27 18.905,29.412 -1.62,32.21 -11.256,1.41 -22.444,-6.648 -21.54,-17.564 z"
   id="path104" />
				</g>
				<g
   id="g112">
					<path
   d="m 719.088,1542.105 c 9.027,-0.547 7.286,8.054 9.213,29.642 2.753,31.327 0.879,29.458 8.996,7.399 2.815,-7.74 -0.744,-8.669 -4.95,-68.336 -0.554,-7.9 9.095,-4.513 17.19,-2.966 3.424,0.656 12.731,-42.541 17.187,-45.626 2.261,-1.594 3.516,-0.986 9.717,0.04 6.302,1.047 4.119,4.261 3.446,49.388 -0.067,4.313 20.937,-0.561 16.491,9.896 -31.053,71.935 -27.259,48.702 -26.612,80.327 0.086,3.602 19.483,-41.819 20.049,-43.138 4.038,-7.008 12.156,-3.57 13.078,1.689 0.752,4.354 -23.483,53.667 -24.022,54.764 -6.793,13.698 -6.557,16.352 -21.674,14.225 -28.597,-4.685 -36.266,-4.722 -37.5,-14.059 -3.248,-24.09 -5.269,-44.589 -7.017,-65.895 -0.267,-3.397 1.716,-7.074 6.408,-7.35 z"
   id="path108" />
					<path
   d="m 723.895,1643.121 c 2.686,-13.906 23.132,-18.615 33.591,-6.189 6.259,7.492 4.865,17.971 -3.503,23.349 -12.96,8.396 -33.036,-1.895 -30.088,-17.16 z"
   id="path110" />
				</g>
			</g>
			<g
   id="g128">
				<g
   id="g120">
					<path
   d="m 651.118,1527.055 c -0.159,8.322 -1.144,47.597 1.106,41.193 15.554,-44.289 1.664,-3.516 27.289,-123.032 0.762,-3.534 4.084,-5.821 7.051,-4.859 16.726,5.439 10.785,-5.542 -5.428,99.084 36.984,-86.822 34.057,-90.489 41.052,-88.584 4.693,1.316 13.172,1.775 10.353,9.555 -41.2,113.446 -31.972,73.463 -42.206,118.821 -0.161,0.711 0.841,1.105 1.233,0.492 21.106,-32.838 23.021,-42.556 30.702,-37.6 6.223,4.005 2.238,9.267 -13.753,37.047 -21.619,37.641 -18.598,37.951 -47.221,29.308 -29.311,-8.721 -27.973,-1.093 -22.851,-81.764 0.567,-9.136 12.912,-9.266 12.673,0.339 z"
   id="path116" />
					<path
   d="m 638.053,1621.758 c 4.302,-13.699 25.247,-15.351 33.641,-2.362 5.257,8.078 2.779,18.201 -6.049,22.478 -14.428,6.933 -31.997,-6.09 -27.592,-20.116 z"
   id="path118" />
				</g>
				<g
   id="g126">
					<path
   d="m 574.087,1491.103 c 8.909,1.612 5.313,9.347 2.344,30.936 -4.314,31.117 -5.809,29.014 7.098,9.25 4.465,-6.895 1.176,-8.238 10.487,-67.701 0.51,-3.25 3.895,-5.221 6.694,-3.914 14.634,6.842 9.488,9.593 23.611,-14.31 10.581,-17.871 12.225,-23.77 17.983,-21.495 13.047,5.32 10.297,0.494 -2.149,51.18 -1.02,4.141 20.5,4.157 13.849,13.329 -46.387,63.227 -37.456,41.318 -43.915,72.332 -0.717,3.501 27.873,-35.738 29.197,-37.552 6.566,-7.073 15.966,1.628 10.935,8.443 -43.928,59.5 -45.398,58.159 -53.607,55.033 -46.889,-17.859 -42.552,-5.932 -30.414,-89.812 0.521,-3.516 3.462,-6.55 7.887,-5.719 z"
   id="path122" />
					<path
   d="m 556.131,1590.636 c 2.815,-6.358 9.591,-9.856 16.607,-9.53 20.396,0.908 26.697,26.588 8.88,33.006 -15.092,5.315 -31.598,-9.671 -25.487,-23.476 z"
   id="path124" />
				</g>
			</g>
			<g
   id="g142">
				<g
   id="g134">
					<path
   d="m 511.223,1461.19 c -1.994,7.953 -11.797,46.196 -8.146,40.415 18.815,-29.792 6.755,-8.062 32.947,-67.174 21.339,-48.329 22.864,-53.363 29.102,-49.768 14.82,8.752 11.869,-3.217 -27.422,95.324 60.631,-82.829 52.115,-81.235 63.016,-75.463 1.449,0.75 9.052,3.363 4.783,9.971 -69.768,107.82 -46.886,62.908 -67.743,106.328 -0.313,0.651 0.569,1.273 1.084,0.769 29.145,-28.553 32.127,-36.058 38.329,-29.734 5.26,5.359 -1.216,10.468 -13.771,24.384 -29.393,31.935 -34.449,40.498 -46.973,33.89 -37.434,-19.765 -37.067,-18.576 -31.727,-40.124 4.336,-17.192 9.414,-35.757 14.205,-51.919 2.589,-8.776 14.679,-6.171 12.316,3.101 z"
   id="path130" />
					<path
   d="m 487.816,1543.268 c 15.262,-3.264 28.741,12.739 22.139,25.381 -3.205,6.138 -10.161,8.999 -17.302,8.013 -19.947,-2.776 -24.066,-29.448 -4.837,-33.394 z"
   id="path132" />
				</g>
				<g
   id="g140">
					<path
   d="m 448.095,1417.604 c -5.56,13.916 -11.734,30.244 -16.78,44.364 -0.723,1.996 3.185,-2.159 13.047,-11.678 5.508,-5.358 2.35,-5.221 25.287,-63.662 4.244,-10.622 15.763,7.634 18.689,4.598 36.248,-37.558 30.471,-37.215 42.199,-29.11 5.047,3.492 0.794,8.371 -8.622,26.706 -10.659,20.707 -10.701,20.258 -9.374,21.134 l 9.847,6.481 c 2.565,1.724 2.751,5.561 0.255,7.749 -47.523,41.041 -48.455,37.898 -51.733,44.955 -5.805,12.646 -8.288,17.44 -6.685,16.146 11.662,-9.432 25.016,-20.644 36.297,-30.481 6.709,-4.563 12.547,2.036 11.072,7.16 -0.61,2.113 0.366,1.941 -27.646,24.631 -25.882,21.078 -30.538,26.313 -39.187,20.556 -27.371,-18.973 -35.027,-22.658 -31.959,-31.995 3.151,-9.474 10.579,-32.242 22.354,-62.347 3.073,-7.908 15.367,-4.532 12.939,4.793 z"
   id="path136" />
					<path
   d="m 404.428,1502.05 c 8.732,-11.694 29.26,-6.244 32.951,9.004 2.322,9.69 -3.638,18.411 -13.328,19.489 -16.164,1.836 -28.491,-16.616 -19.623,-28.493 z"
   id="path138" />
				</g>
			</g>
			<g
   id="g156">
				<g
   id="g148">
					<path
   d="m 389.465,1365.853 c -6.876,13.475 -12.531,25.198 -18.006,36.85 -0.305,0.654 0.571,1.279 1.083,0.77 20.471,-20.408 14.446,-13.467 26.17,-29.775 58.647,-80.548 54.289,-75.755 62.86,-68.017 9.197,8.54 7.199,0.669 -50.459,84.383 70.338,-61.099 69.776,-66.754 75.499,-61.918 12.399,10.496 13.148,6.407 -31.931,48.504 -47.554,44.533 -30.568,25.56 -52.573,53.229 -4.265,5.362 28.743,-16.58 35.478,-21.004 6.348,-4.177 12.232,1.73 9.622,7.457 -0.856,1.868 0.455,1.504 -28.713,21.4 -27.729,18.938 -33.09,25.015 -44.727,15.162 -34.976,-29.792 -32.399,-24.218 -10.862,-64.827 5.841,-10.935 6.37,-12.017 15.261,-27.99 4.492,-8.005 15.591,-2.626 11.298,5.776 z"
   id="path144" />
					<path
   d="m 336.559,1445.492 c 9.768,-10.411 29.252,-2.993 31.244,12.516 1.273,9.539 -5.417,17.531 -15.221,17.612 -15.692,0.054 -26.238,-19.242 -16.023,-30.128 z"
   id="path146" />
				</g>
				<g
   id="g154">
					<path
   d="m 335.596,1300.077 c 7.751,5.506 1.732,7.974 -24.205,48.824 -1.125,1.756 3.483,-1.34 15.294,-8.489 5.336,-3.257 4.343,-4.324 21.962,-31.368 6.454,-9.836 7.02,-10.775 16.809,-25.136 1.873,-2.715 5.763,-3.013 7.7,-0.604 8.053,10.419 8.505,9.887 9.487,9.243 37.782,-24.735 39.337,-28.303 43.578,-23.523 3.444,3.888 7.784,7.284 3.647,12.136 -32.222,37.729 -29.076,33.595 -26.505,36.36 1.762,1.909 1.539,1.654 6.915,7.155 2.16,2.212 1.422,6.063 -1.474,7.621 -69.266,37.222 -51.073,20.209 -70.946,46.133 -1.227,1.612 3.563,-1.027 7.07,-2.761 35.833,-17.854 39.797,-23.576 44.543,-15.455 4.233,7.363 -1.635,9.367 -32.239,24.379 -32.107,15.858 -32.553,15.824 -36.649,14.924 -3.069,-0.723 -4.504,-0.23 -28.696,-28.798 -6.294,-7.435 -5.907,-9.131 34.072,-68.855 2.049,-3.028 6.041,-4.352 9.637,-1.786 z"
   id="path150" />
					<path
   d="m 276.299,1382.04 c 10.78,-9.195 29.835,-0.032 30.118,16.08 0.17,9.712 -7.38,17.116 -17.313,16.054 -15.833,-1.693 -24.367,-22.273 -12.805,-32.134 z"
   id="path152" />
				</g>
			</g>
			<g
   id="g170">
				<g
   id="g162">
					<path
   d="m 291.8,1245.948 c -35.387,42.481 -32.025,37.449 -4.709,20.305 24.191,-21.56 52.868,-46.097 77.904,-66.65 6.266,-5.131 9.663,2.32 12.473,6.598 4.236,6.268 -1.762,5.392 -69.927,68.156 93.751,-50.263 81.206,-51.656 91.705,-37.986 1.901,2.481 0.854,6.374 -2.23,8.263 -104.183,63.706 -70.619,37.336 -107.055,66.546 -0.563,0.451 -0.024,1.383 0.661,1.149 36.877,-12.471 44.569,-18.902 47.436,-10.242 2.488,7.483 -3.171,9.299 -63.723,31.737 -12.062,4.425 -17.831,-7.018 -34.085,-30.456 -3.534,-5.003 -3.799,-12.271 0.216,-17.174 5.128,-6.221 20.286,-24.83 41.629,-48.404 6.143,-6.804 15.829,0.813 9.705,8.158 z"
   id="path158" />
					<path
   d="m 222.564,1311.898 c 17.901,-11.99 38.823,17.427 21.619,30.401 -17.542,13.229 -39.891,-18.164 -21.619,-30.401 z"
   id="path160" />
				</g>
				<g
   id="g168">
					<path
   d="m 253.886,1169.858 c 5.902,6.639 -1.225,10.212 -17.419,25.672 -15.819,15.17 -18.537,17.733 -16.667,17.12 31.164,-10.341 8.563,1.652 66.819,-51.929 2.423,-2.227 6.297,-1.662 7.671,1.105 3.216,6.481 2.064,4.225 5.365,10.49 0.76,1.44 0.816,1.118 22.022,-6.99 19.323,-7.368 24.377,-10.998 27.464,-5.63 2.471,4.415 6.075,8.733 0.845,12.637 -37.345,27.905 -35.597,26.603 -34.799,27.953 5.544,9.381 4.363,7.419 6.049,10.115 1.638,2.62 0.081,6.201 -3.095,7.083 -60.774,16.514 -60.086,13.237 -66.069,18.172 -10.667,8.864 -15.044,12.158 -13.028,11.683 47.058,-11.138 51.375,-16.099 54.046,-6.911 2.382,8.171 -6.801,9.087 -14.788,11.142 -17.183,4.44 -35.892,8.858 -54.452,12.76 -9.441,1.99 -12.398,-6.484 -23.212,-25.856 -10.689,-19.326 -15.498,-13.495 43.519,-69.051 2.598,-2.429 6.787,-2.97 9.729,0.435 z"
   id="path164" />
					<path
   d="m 177.888,1236.58 c 6.163,-3.226 13.64,-1.741 18.918,2.88 15.113,12.785 4.804,37.57 -13.586,31.339 -14.907,-5.044 -18.868,-27.134 -5.332,-34.219 z"
   id="path166" />
				</g>
			</g>
			<g
   id="g184">
				<g
   id="g176">
					<path
   d="m 224.552,1106.159 c 0,0 -22.017,17.222 -33.406,26.542 -4.223,3.455 12.453,-2.953 23.049,-6.646 23.871,-13.134 51.622,-27.776 76.482,-40.36 11.77,-5.916 19.745,-11.649 22.477,-4.699 2.202,5.788 5.114,10.435 -0.505,13.416 -25.638,13.504 -55.201,29.74 -80.317,44.101 99.286,-27.528 91.499,-30.828 96.286,-19.84 0.686,1.464 4.985,8.266 -2.457,10.777 -121.131,40.771 -76.009,20.132 -119.204,41.06 -0.65,0.315 -0.348,1.351 0.369,1.277 42.618,-4.436 43.043,-6.404 46.581,-3.37 2.389,2.08 3.006,6.565 -0.369,9.375 -3.741,3.107 -62.172,10.729 -66.863,11.322 -12.413,1.592 -15.3,-9.873 -24.686,-32.853 -7.191,-17.311 -5.875,-17.445 53.639,-59.045 6.559,-4.6 14.468,2.449 8.924,8.943 z"
   id="path172" />
					<path
   d="m 132.251,1165.529 c 5.216,-14.717 24.904,-13.3 31.017,1.639 6.27,15.715 -7.09,29.585 -20.706,23.097 -9.339,-4.453 -13.374,-15.893 -10.311,-24.736 z"
   id="path174" />
				</g>
				<g
   id="g182">
					<path
   d="m 203.391,1024.682 c 4.19,8.015 -3.935,9.936 -22.732,21.117 -27.02,16.03 -26.392,13.558 -2.831,11.323 8.15,-0.804 7.197,-4.216 59.471,-34.002 2.857,-1.626 6.515,-0.21 7.248,2.79 2.771,11.369 2.647,12.686 4.487,12.444 51.277,-6.709 47.027,-10.218 51.127,3.518 1.752,5.877 -4.633,7.045 -23.413,15.511 -21.204,9.53 -20.96,9.173 -20.471,10.677 l 3.636,11.204 c 0.969,2.932 -1.292,6.053 -4.605,6.21 -62.477,2.535 -61.475,-0.557 -68.467,2.944 -12.398,6.265 -17.359,8.481 -15.293,8.468 17.336,-0.125 32.013,-0.587 47.383,-1.233 8.05,0.6 8.555,9.395 4.185,12.502 -4.29,3.045 -67.739,1.921 -70.142,1.885 -9.516,-0.165 -10.858,-10.006 -15.146,-24.421 -8.394,-28.313 -15.272,-21.731 56.163,-63.539 3.071,-1.781 7.28,-1.374 9.4,2.602 z"
   id="path178" />
					<path
   d="m 104.39,1081.131 c 6.243,-12.9 23.387,-11.313 29.639,1.699 8.179,16.677 -7.59,33.672 -22.126,24.427 -8.097,-5.095 -12.085,-16.688 -7.513,-26.126 z"
   id="path180" />
				</g>
			</g>
			<g
   id="g198">
				<g
   id="g190">
					<path
   d="m 187.584,956.883 c -7.543,3.433 -43.463,19.563 -36.678,18.817 35.024,-3.853 10.535,0.253 73.065,-16.1 60.583,-15.924 55.871,-16.706 58.054,-1.16 1.033,7.413 -2.893,3.745 -92.631,30.867 109.323,-4.493 95.182,-10.948 99.012,5.749 0.669,3.048 -1.941,6.086 -5.544,6.446 -120.26,11.914 -79.893,2.887 -125.362,13.301 -7.907,1.811 39.994,5.246 42.513,6.039 6.566,2.074 5.801,9.186 1.223,11.502 -1.795,0.906 -0.544,1.482 -35.823,-1.173 -31.8,-2.351 -41.559,-1.267 -44.136,-14.78 -9.054,-47.368 -16.338,-39.739 61.07,-71.072 8.482,-3.449 13.959,7.636 5.237,11.564 z"
   id="path186" />
					<path
   d="m 108.813,989.732 c 12.142,10.027 7.864,30.436 -6.047,33.136 -6.907,1.341 -13.463,-2.458 -17.067,-8.535 -10.224,-17.948 8.328,-36.941 23.114,-24.601 z"
   id="path188" />
				</g>
				<g
   id="g196">
					<path
   d="m 186.555,871.861 c 2.41,8.585 -5.613,8.696 -26.838,15.547 -29.866,9.615 -28.73,7.344 -5.26,10.404 8.073,1.022 9.972,-3.091 65.546,-19.949 10.95,-3.317 3.8,17.094 8.05,17.493 52.301,4.714 48.164,1.033 49.056,14.86 0.426,6.688 -5.597,5.535 -47.444,14.262 -4.087,0.856 5.161,20.282 -6.016,18.271 -77,-14.412 -53.422,-15.892 -84.206,-8.273 -3.44,0.863 45.584,9.894 46.472,10.059 7.693,2.378 6.261,11.065 1.293,13.122 -4.135,1.708 -50.477,-9.43 -58.717,-11.374 -19.219,-4.705 -17.712,-3.357 -19.378,-29.616 -1.158,-15.914 -2.366,-24.836 6.179,-28.008 24.243,-9.037 43.47,-15.35 62.69,-21.418 3.4,-1.06 7.404,0.277 8.573,4.62 z"
   id="path192" />
					<path
   d="m 101.102,903.938 c 16.512,16.907 -6.022,44.242 -22.1,28.014 -16.906,-16.928 5.44,-45.187 22.1,-28.014 z"
   id="path194" />
				</g>
			</g>
			<g
   id="g212">
				<g
   id="g204">
					<path
   d="m 186.083,802.224 c -8.474,1.748 -46.595,9.524 -39.898,10.281 46.241,5.224 4.384,0.867 126.02,-0.902 3.615,-0.048 6.586,2.683 6.311,5.798 -1.531,17.155 8.051,9.319 -97.792,16.854 97.051,17.455 95.804,12.754 95.461,21.448 -0.116,4.294 0.865,12.125 -6.977,11.145 -37.47,-4.71 -68.733,-9.497 -101.472,-14.828 -32.757,0.076 -31.41,-0.998 -4.578,8.183 19.034,6.536 19.482,6.291 20.97,7.162 5.841,3.398 3.735,10.224 -1.337,11.491 -2.341,0.582 -1.557,0.96 -34.701,-9.083 -37.343,-11.44 -40.279,-10.527 -39.578,-28.934 1.634,-36.407 -0.069,-36.51 22.124,-41.207 17.849,-3.638 33.487,-6.65 52.953,-9.836 9.046,-1.493 11.887,10.516 2.494,12.428 z"
   id="path200" />
					<path
   d="m 90.862,810.638 c 8.997,0.749 15.831,9.483 15.202,19.505 -1.32,21.92 -29.733,24.29 -32.766,2.034 -1.41,-11.255 6.648,-22.443 17.564,-21.539 z"
   id="path202" />
				</g>
				<g
   id="g210">
					<path
   d="m 203.871,719.092 c 0.547,9.026 -8.051,7.285 -29.642,9.213 -31.324,2.754 -29.46,0.878 -7.399,8.996 7.736,2.813 8.637,-0.742 68.336,-4.95 3.285,-0.23 5.957,2.625 5.298,5.643 -3.422,15.679 -7.377,11.346 19.238,19.805 27.353,8.721 26.102,6.033 24.016,18.646 -1.047,6.297 -4.253,4.119 -49.388,3.446 -4.323,-0.068 0.572,20.941 -9.896,16.491 -71.809,-30.999 -48.762,-27.258 -80.327,-26.612 -3.602,0.086 41.803,19.476 43.138,20.049 7.008,4.038 3.57,12.156 -1.689,13.078 -4.862,0.84 -59.771,-26.494 -64.055,-28.647 -7.769,-3.899 -6.922,-11.286 -1.058,-40.029 2.969,-15.526 -1.595,-15.163 76.077,-21.537 3.456,-0.271 7.077,1.776 7.351,6.408 z"
   id="path206" />
					<path
   d="m 102.854,723.9 c 13.896,2.683 18.625,23.124 6.19,33.591 -7.492,6.259 -17.971,4.865 -23.349,-3.503 -8.416,-12.991 1.921,-33.031 17.159,-30.088 z"
   id="path208" />
				</g>
			</g>
			<g
   id="g226">
				<g
   id="g218">
					<path
   d="m 218.92,651.123 c -8.309,-0.158 -47.599,-1.144 -41.193,1.106 44.293,15.555 3.506,1.662 123.032,27.289 3.534,0.762 5.821,4.084 4.859,7.051 -5.324,16.371 5.804,10.826 -99.084,-5.428 96.127,40.948 90.401,32.801 87.698,44.52 -0.381,1.57 -1.288,9.559 -8.67,6.885 -120.429,-43.735 -71.867,-31.612 -118.821,-42.205 -6.595,-1.49 26.893,18.358 34.387,22.821 6.492,3.888 3.731,11.786 -2.474,11.918 -3.278,0.065 -9.083,-3.45 -31.851,-16.556 -37.641,-21.619 -37.951,-18.598 -29.308,-47.221 8.717,-29.298 1.034,-27.977 81.764,-22.851 9.154,0.566 9.237,12.908 -0.339,12.671 z"
   id="path214" />
					<path
   d="m 133.745,646.69 c 9.81,21.024 -19.78,39.317 -29.643,18.96 -10.126,-21.07 19.463,-40.558 29.643,-18.96 z"
   id="path216" />
				</g>
				<g
   id="g224">
					<path
   d="m 254.873,574.092 c -1.612,8.909 -9.349,5.313 -30.936,2.344 -31.144,-4.318 -29.011,-5.808 -9.25,7.098 6.895,4.466 8.222,1.174 67.701,10.487 3.25,0.51 5.221,3.895 3.914,6.694 0,0 -1.247,2.668 -2.495,5.337 -3.862,8.114 -5.931,4.841 16.805,18.274 17.871,10.581 23.769,12.225 21.495,17.983 -5.394,13.229 -0.797,10.222 -51.18,-2.149 -4.132,-1.018 -4.163,20.495 -13.329,13.849 -63.212,-46.374 -41.318,-37.456 -72.332,-43.915 -3.062,-0.627 30.681,24.177 31.568,24.827 4.327,3.16 11.946,7.079 7.225,13.779 -2.538,3.614 -6.743,3.697 -9.683,1.526 -14.524,-10.723 -30.294,-22.995 -44.131,-34.237 -15.769,-12.97 -16.118,-9.124 2.063,-50.698 3.927,-8.974 6.108,-9.322 76.848,0.914 3.514,0.521 6.547,3.462 5.717,7.887 z"
   id="path220" />
					<path
   d="m 155.339,556.136 c 13.267,5.873 12.628,27.059 -1.504,34.13 -8.643,4.404 -18.576,0.782 -21.971,-8.644 -5.324,-15.113 9.693,-31.587 23.475,-25.486 z"
   id="path222" />
				</g>
			</g>
			<g
   id="g240">
				<g
   id="g232">
					<path
   d="m 284.785,511.228 c -5.464,-1.37 -19.626,-4.987 -39.895,-9.368 -0.707,-0.153 -1.13,0.836 -0.519,1.222 29.791,18.815 8.062,6.755 67.174,32.947 48.548,21.435 53.359,22.871 49.768,29.102 -8.752,14.82 3.217,11.87 -95.324,-27.422 82.787,60.6 81.236,52.112 75.463,63.016 -0.75,1.449 -3.363,9.052 -9.971,4.783 -107.846,-69.785 -62.838,-46.853 -106.328,-67.743 -0.651,-0.313 -1.273,0.569 -0.769,1.084 28.546,29.137 36.073,32.113 29.734,38.329 -5.357,5.258 -10.46,-1.208 -24.384,-13.77 -41.946,-38.607 -41.586,-33.626 -26.593,-60.489 6.016,-10.755 11.088,-23.564 23.11,-20.62 19.786,4.903 39.109,9.934 61.636,16.613 8.778,2.589 6.167,14.679 -3.102,12.316 z"
   id="path228" />
					<path
   d="m 202.707,487.821 c 3.263,15.259 -12.735,28.743 -25.381,22.139 -6.138,-3.205 -8.999,-10.161 -8.013,-17.302 2.776,-19.947 29.448,-24.066 33.394,-4.837 z"
   id="path230" />
				</g>
				<g
   id="g238">
					<path
   d="m 337.012,444.145 c -3.488,8.214 -10.252,3.101 -30.691,-4.608 -18.775,-7.122 -24.044,-9.073 -22.689,-7.659 21.852,22.64 2.933,9.21 75.716,37.776 3.057,1.222 4.218,4.956 2.347,7.417 l -7.168,9.361 c -0.955,1.312 -0.735,1.141 15.854,16.857 14.879,14.122 20.59,17.362 16.95,22.338 -8.469,11.577 -2.359,10.174 -49.457,-13.518 -3.75,-1.893 -8.555,19.125 -16.082,10.539 -51.239,-59.331 -31.97,-45.773 -60.696,-58.958 -1.577,-0.717 0.532,2.014 14.716,18.87 13.847,16.521 21.172,21.393 14.506,27.441 -3.318,3.015 -7.436,2.052 -9.76,-0.664 -47.905,-55.748 -46.597,-57.261 -41.732,-64.571 11.847,-17.092 7.663,-11.188 19.613,-27.625 5.578,-7.785 9.074,-7.66 74.729,18.02 3.308,1.287 5.61,4.838 3.844,8.984 z"
   id="path234" />
					<path
   d="m 231.145,401.914 c 22.429,-5.094 26.49,29.97 3.777,35.469 -23.512,5.635 -26.894,-30.196 -3.777,-35.469 z"
   id="path236" />
				</g>
			</g>
			<g
   id="g254">
				<g
   id="g246">
					<path
   d="m 380.123,389.47 c -7.602,-3.879 -42.411,-21.73 -37.62,-16.923 33.889,33.995 -2.269,-0.598 99.026,78.027 6.206,4.829 -0.288,9.955 -1.234,11.003 -8.395,9.042 0.19,7.791 -84.383,-50.459 69.486,79.994 68.652,67.545 57.282,80.975 -4.886,5.773 -10.776,-2.656 -19.643,-11.835 -19.815,-20.617 -41.078,-43.54 -58.871,-63.368 -25.738,-20.469 -26.367,-23.394 -1.094,15.348 3.849,5.861 3.931,5.895 4.303,6.855 2.5,6.468 -3.508,10.277 -8.245,8.119 -2.443,-1.12 -2.881,-2.26 -8.911,-10.726 -41.702,-58.998 -38.683,-50.387 -14.635,-77.456 6.61,-7.377 13.372,-15.728 23.371,-10.735 20.92,10.414 38.293,19.781 56.429,29.876 8.017,4.499 2.613,15.585 -5.775,11.299 z"
   id="path242" />
					<path
   d="m 281.513,334.692 c 14.726,-7.528 28.346,5.758 22.428,20.422 -7.249,18.312 -33.428,16.527 -33.585,-2.527 -0.027,-7.571 4.958,-14.676 11.157,-17.895 z"
   id="path244" />
				</g>
				<g
   id="g252">
					<path
   d="m 445.898,335.601 c -5.531,7.787 -8.124,1.636 -48.824,-24.205 -1.756,-1.125 1.34,3.483 8.489,15.294 4.053,6.639 4.779,3.511 56.504,38.771 9.234,6.369 -11.022,13.554 -8.639,17.187 24.778,37.847 28.306,39.334 23.523,43.578 -10.737,9.511 -5.153,8.908 -45.228,-24.113 -3.285,-2.711 -12.623,16.774 -18.044,6.696 -36.866,-68.604 -20.039,-50.943 -46.133,-70.946 -2.706,-2.06 19.769,39.963 21.197,42.612 3.436,8.779 -8.31,13.835 -12.324,6.217 -38.138,-72.981 -36.452,-63.438 -13.891,-83.631 11.437,-10.144 17.703,-17.51 25.745,-12.678 22.449,13.563 34.493,21.291 55.841,35.581 3.026,2.049 4.351,6.041 1.784,9.637 z"
   id="path248" />
					<path
   d="m 367.438,288.807 c -2.829,23.263 -38.086,23.208 -35.636,0.301 2.536,-23.733 38.782,-24.019 35.636,-0.301 z"
   id="path250" />
				</g>
			</g>
			<g
   id="g268">
				<g
   id="g260">
					<path
   d="m 500.027,291.805 c -42.564,-35.457 -37.416,-31.971 -20.305,-4.709 21.558,24.189 46.092,52.861 66.65,77.904 5.131,6.266 -2.32,9.663 -6.598,12.473 -6.268,4.236 -5.396,-1.767 -68.156,-69.927 50.251,93.731 51.658,81.205 37.986,91.705 -2.481,1.902 -6.374,0.854 -8.263,-2.23 -63.706,-104.183 -37.336,-70.618 -66.546,-107.055 -4.897,-6.109 12.769,38.864 13.057,40.877 1.015,6.91 -5.678,9.296 -9.788,6.155 -3.992,-3.059 -24.733,-59.471 -25.914,-62.658 -4.423,-12.057 7.001,-17.819 30.456,-34.085 5.005,-3.535 12.272,-3.798 17.174,0.216 6.248,5.15 24.856,20.31 48.404,41.629 6.805,6.143 -0.812,15.829 -8.157,9.705 z"
   id="path256" />
					<path
   d="m 434.078,222.569 c 11.989,17.901 -17.427,38.823 -30.401,21.619 -13.234,-17.548 18.163,-39.891 30.401,-21.619 z"
   id="path258" />
				</g>
				<g
   id="g266">
					<path
   d="m 576.117,253.891 c -6.639,5.902 -10.212,-1.225 -25.672,-17.419 -14.937,-15.575 -17.742,-18.563 -17.12,-16.667 10.361,31.223 -0.869,9.414 51.929,66.819 2.227,2.423 1.661,6.297 -1.105,7.671 -6.336,3.144 -4.088,1.992 -10.49,5.365 -1.439,0.76 -1.118,0.816 6.991,22.022 7.368,19.323 10.998,24.378 5.63,27.464 -4.415,2.471 -8.733,6.075 -12.637,0.845 -28.053,-37.543 -26.612,-35.592 -27.953,-34.799 -9.375,5.54 -7.422,4.365 -10.116,6.049 -2.62,1.638 -6.201,0.081 -7.083,-3.095 -16.514,-60.772 -13.237,-60.086 -18.172,-66.069 -8.864,-10.667 -12.158,-15.044 -11.683,-13.028 11.136,47.049 16.103,51.374 6.912,54.046 -7.215,2.103 -8.845,2.385 -23.902,-69.24 -1.99,-9.441 6.484,-12.398 25.856,-23.212 19.32,-10.685 13.494,-15.501 69.051,43.519 2.428,2.598 2.969,6.787 -0.436,9.729 z"
   id="path262" />
					<path
   d="m 509.395,177.893 c 6.627,12.661 -6.645,28.996 -22.407,25.775 -9.564,-1.957 -15.005,-11.021 -11.813,-20.443 5.045,-14.907 27.135,-18.869 34.22,-5.332 z"
   id="path264" />
				</g>
			</g>
			<g
   id="g282">
				<g
   id="g274">
					<path
   d="m 638.657,223.314 c -4.792,-6.267 -28.792,-37.964 -26.551,-31.533 11.618,33.329 2.107,10.301 32.053,67.615 28.582,54.538 29.289,50.54 14.13,56.308 -7.04,2.689 -5.019,-3.261 -50.826,-83.368 29.059,104.807 31.891,90.636 16.597,97.806 -2.827,1.323 -6.377,-0.548 -7.534,-3.977 -12.066,-35.847 -21.261,-65.892 -30.705,-97.832 -5.221,-10.775 -12.168,-26.221 -11.632,-21.004 1.717,16.496 4.921,42.423 4.921,42.423 -0.665,8.268 -11.192,8.108 -12.625,0.047 -13.71,-78.716 -15.154,-72.041 13.449,-83.812 22.501,-9.19 23.419,-11.5 37.037,6.172 10.47,13.729 21.862,29.272 31.788,43.473 5.234,7.464 -4.29,15.344 -10.102,7.682 z"
   id="path270" />
					<path
   d="m 589.002,153.903 c -10.212,20.66 -43.117,9.285 -33.291,-11.337 10.136,-21.26 43.885,-9.712 33.291,11.337 z"
   id="path272" />
				</g>
				<g
   id="g280">
					<path
   d="m 721.293,203.396 c -8.014,4.19 -9.934,-3.934 -21.117,-22.732 -16.024,-27.01 -13.559,-26.394 -11.323,-2.831 0.805,8.15 4.211,7.189 34.002,59.471 5.676,9.972 -15.799,7.44 -15.234,11.735 6.767,51.718 9.94,47.11 -3.518,51.127 -5.877,1.752 -7.046,-4.633 -15.511,-23.413 -9.53,-21.204 -9.173,-20.96 -10.677,-20.471 l -11.204,3.636 c -2.932,0.969 -6.053,-1.292 -6.21,-4.604 -2.538,-62.464 0.559,-61.471 -2.945,-68.467 -6.265,-12.398 -8.481,-17.359 -8.468,-15.293 0.348,48.377 4.161,53.651 -5.338,54.252 -4.473,0.285 -7.099,-3.034 -7.225,-6.605 -0.958,-25.526 -0.893,-46.029 -0.591,-66.22 0.166,-9.546 8.348,-10.89 40.766,-19.656 9.697,-2.707 11.684,-0.004 47.195,60.673 1.782,3.068 1.374,7.277 -2.602,9.398 z"
   id="path276" />
					<path
   d="m 673.279,114.344 c 2.236,8.531 -3.359,18.057 -13.624,21.069 -15.852,4.703 -29.295,-10.363 -20.936,-23.505 8.677,-13.792 30.791,-11.945 34.56,2.436 z"
   id="path278" />
				</g>
			</g>
			<g
   id="g296">
				<g
   id="g288">
					<path
   d="m 789.092,187.588 c -3.172,-6.969 -19.567,-43.496 -18.817,-36.678 3.853,35.024 -0.253,10.535 16.1,73.065 15.923,60.581 16.707,55.871 1.16,58.054 -7.247,1.01 -3.648,-2.578 -30.867,-92.631 4.215,102.576 10.021,95.963 -2.24,98.298 -1.234,0.22 -9.169,3.035 -9.955,-4.83 -12.645,-127.639 -2.527,-78.321 -13.301,-125.362 -1.566,-6.841 -5.092,33.877 -5.717,40.849 -0.876,9.487 -13.094,7.941 -12.641,-1.141 3.916,-73.567 3.189,-73.335 21.486,-76.833 3.237,-0.659 19.965,-3.448 25.571,-4.237 12.566,-1.768 14.789,1.985 40.785,66.208 3.449,8.482 -7.633,13.963 -11.564,5.238 z"
   id="path284" />
					<path
   d="m 759.91,96.548 c 2.014,13.986 -15.825,24.779 -29.301,16.636 -10.643,-6.432 -10.372,-20.718 1.033,-27.48 11.529,-6.568 26.552,-1.077 28.268,10.844 z"
   id="path286" />
				</g>
				<g
   id="g294">
					<path
   d="m 874.114,186.56 c -8.585,2.41 -8.696,-5.613 -15.547,-26.838 -9.616,-29.867 -7.344,-28.731 -10.404,-5.26 -1.018,8.038 3.211,10.366 19.949,65.547 3.318,10.955 -17.093,3.798 -17.493,8.05 -4.714,52.296 -1.029,48.163 -14.86,49.056 -6.618,0.422 -5.454,-5.207 -14.261,-47.444 -0.856,-4.081 -20.28,5.15 -18.271,-6.016 14.414,-76.998 15.891,-53.427 8.273,-84.206 -0.863,-3.439 -9.894,45.584 -10.059,46.472 -2.379,7.693 -11.065,6.261 -13.122,1.293 -0.909,-2.201 -1.668,-1.076 8.939,-48.392 7.529,-31.923 1.185,-28.643 48.96,-30.457 5.088,-0.192 9.498,2.619 11.099,6.934 9.052,24.282 15.381,43.567 21.418,62.69 1.06,3.398 -0.278,7.402 -4.621,8.571 z"
   id="path290" />
					<path
   d="m 842.037,101.107 c -16.91,16.515 -44.238,-6.025 -28.014,-22.1 16.921,-16.898 45.196,5.431 28.014,22.1 z"
   id="path292" />
				</g>
			</g>
			<g
   id="g310">
				<g
   id="g302">
					<path
   d="m 943.751,186.087 c -11.202,-54.296 -9.336,-48.258 -12.945,-16.31 1.78,32.339 3.095,70.044 3.566,102.432 0.109,8.098 -7.85,6.128 -12.945,5.673 -7.393,-0.751 -3.02,-3.219 -9.707,-97.154 -16.672,92.694 -13.085,95.79 -20.326,95.505 -5.616,-0.222 -13.26,0.927 -12.267,-7.021 16.001,-127.303 14.883,-77.434 14.772,-125.222 -0.002,-0.722 -1.065,-0.901 -1.309,-0.224 -13.804,38.52 -13.254,46.416 -21.585,43.46 -7.021,-2.524 -3.509,-9.759 1.808,-27.949 12.596,-41.574 13.38,-51.423 27.532,-50.944 29.657,1.128 41.301,0.237 43.928,12.534 4.244,20.05 8.116,39.581 11.904,62.725 1.495,9.043 -10.511,11.896 -12.426,2.495 z"
   id="path298" />
					<path
   d="m 935.337,90.867 c -0.817,9.818 -11.329,17.454 -23.16,14.645 -18.922,-4.27 -18.905,-29.411 1.62,-32.21 11.257,-1.41 22.445,6.649 21.54,17.565 z"
   id="path300" />
				</g>
				<g
   id="g308">
					<path
   d="m 1026.883,203.875 c -9.026,0.547 -7.286,-8.051 -9.213,-29.642 -2.754,-31.319 -0.876,-29.464 -8.996,-7.399 -2.814,7.737 0.742,8.644 4.95,68.336 0.23,3.285 -2.625,5.957 -5.643,5.298 -15.695,-3.426 -11.347,-7.374 -19.805,19.238 -8.721,27.352 -6.033,26.102 -18.647,24.016 -6.301,-1.047 -4.118,-4.266 -3.446,-49.388 0.067,-4.313 -20.937,0.562 -16.491,-9.896 30.975,-71.754 27.26,-48.645 26.612,-80.327 -0.086,-3.603 -19.497,41.85 -20.049,43.138 -4.038,7.008 -12.156,3.57 -13.078,-1.689 -0.465,-2.69 0.333,-3.65 4.688,-13.512 24.749,-55.43 26.114,-57.57 35.764,-56.215 9.139,1.285 21.259,3.282 33.427,5.609 9.793,1.888 10.516,4.18 16.334,75.082 0.268,3.401 -1.718,7.075 -6.407,7.351 z"
   id="path304" />
					<path
   d="m 1022.076,102.859 c -2.686,13.905 -23.132,18.615 -33.591,6.189 -6.259,-7.492 -4.865,-17.971 3.503,-23.349 13.006,-8.426 33.026,1.943 30.088,17.16 z"
   id="path306" />
				</g>
			</g>
			<g
   id="g324">
				<g
   id="g316">
					<path
   d="m 1101.117,226.113 c -8.95,0.167 -5.571,-7.872 -6.065,-48.141 -0.01,-0.724 -1.066,-0.921 -1.305,-0.24 -15.792,44.967 -0.456,-2.119 -27.289,123.032 -1.706,7.913 -9.004,4.224 -13.859,2.646 -7.188,-2.438 -1.979,-5.139 12.236,-96.87 -36.923,86.68 -34.062,90.488 -41.052,88.584 -4.625,-1.297 -13.177,-1.759 -10.353,-9.555 12.897,-35.512 24.499,-64.894 36.978,-95.652 7.101,-31.476 10.719,-36.329 -17.594,11.218 -3.886,6.49 -11.786,3.733 -11.918,-2.475 -0.096,-4.863 30.301,-55.196 32.826,-59.338 5.807,-9.572 16.661,-5.751 20.769,-4.64 35.142,9.825 35.662,7.928 35.283,30.773 -0.312,16.497 -1.196,37.201 -2.251,53.81 -0.216,3.512 -2.622,6.778 -6.406,6.848 z"
   id="path312" />
					<path
   d="m 1099.285,133.749 c -21.025,9.811 -39.316,-19.78 -18.96,-29.643 21.038,-10.11 40.611,19.439 18.96,29.643 z"
   id="path314" />
				</g>
				<g
   id="g322">
					<path
   d="m 1171.883,254.877 c -8.91,-1.612 -5.312,-9.353 -2.344,-30.936 4.308,-31.083 5.857,-29.087 -7.098,-9.25 -4.464,6.892 -1.187,8.305 -10.487,67.701 -0.51,3.25 -3.895,5.221 -6.694,3.914 -14.616,-6.833 -9.449,-9.659 -23.611,14.31 -10.581,17.871 -12.225,23.77 -17.983,21.495 -13.261,-5.407 -10.209,-0.854 2.149,-51.18 0.407,-1.651 -0.903,-1.74 -6.342,-3.808 -12.818,-4.883 -16.698,-0.68 29.369,-57.554 3.452,-4.271 3.357,-6.614 7.04,-24.299 0.729,-3.555 -28.553,36.67 -29.197,37.553 -5.479,5.902 -12.656,0.793 -12.368,-4.568 0.119,-2.188 -0.774,-1.843 21.426,-30.135 28.572,-36.542 21.155,-34.928 60.088,-17.931 14.799,6.472 15.047,2.218 3.94,78.971 -0.521,3.512 -3.459,6.549 -7.888,5.717 z"
   id="path318" />
					<path
   d="m 1189.839,155.344 c -2.819,6.367 -9.602,9.856 -16.607,9.53 -20.344,-0.905 -26.743,-26.571 -8.88,-33.006 15.101,-5.318 31.595,9.677 25.487,23.476 z"
   id="path320" />
				</g>
			</g>
			<g
   id="g338">
				<g
   id="g330">
					<path
   d="m 1234.748,284.79 c 1.918,-7.651 11.803,-46.203 8.146,-40.415 -18.815,29.791 -6.764,8.081 -32.947,67.174 -21.47,48.626 -22.883,53.352 -29.102,49.768 -14.819,-8.751 -11.868,3.214 27.422,-95.324 -64.167,87.661 -50.587,81.426 -66.219,73.86 -2.797,-1.386 -3.544,-5.327 -1.58,-8.368 20.773,-32.103 38.603,-58.024 57.46,-84.921 14.224,-29.612 14.519,-27.817 -5.37,-7.701 -14.15,14.285 -14.129,14.808 -15.571,15.778 -5.618,3.793 -10.825,-1.083 -9.764,-6.198 0.975,-4.666 42.342,-47.46 45.287,-50.479 8.178,-8.407 18.1,-1.562 25.622,2.433 31.668,17.673 32.558,7.807 8.931,87.494 -2.588,8.777 -14.68,6.171 -12.315,-3.101 z"
   id="path326" />
					<path
   d="m 1269.769,182.539 c 5.055,14.884 -11.279,25.875 -25.29,18.034 -17.19,-9.511 -11.29,-34.035 8.838,-31.256 6.702,0.933 13.9,5.908 16.452,13.222 z"
   id="path328" />
				</g>
				<g
   id="g336">
					<path
   d="m 1301.83,337.017 c -8.214,-3.488 -3.101,-10.252 4.608,-30.691 7.122,-18.775 9.073,-24.044 7.659,-22.689 -22.641,21.853 -9.221,2.968 -37.776,75.716 -1.222,3.057 -4.956,4.218 -7.416,2.347 l -9.361,-7.168 c -1.199,-0.873 0.244,-2.651 -31.655,31.591 -4.201,4.497 -7.831,0.939 -12.456,-2.258 -5.047,-3.492 -0.794,-8.371 8.622,-26.706 10.659,-20.707 10.701,-20.258 9.374,-21.134 l -9.847,-6.481 c -2.565,-1.724 -2.75,-5.561 -0.255,-7.749 47.526,-41.044 48.455,-37.899 51.733,-44.956 5.804,-12.646 8.288,-17.44 6.685,-16.146 -36.166,29.251 -39.171,36.902 -45.771,29.627 -5.831,-6.417 0.242,-10.033 26.048,-30.936 35.591,-28.985 29.363,-27.365 53.11,-10.904 21.117,15.353 21.15,12.982 14.758,32.199 -5.609,16.624 -11.847,34.009 -19.077,52.492 -1.288,3.315 -4.841,5.61 -8.983,3.846 z"
   id="path332" />
					<path
   d="m 1330.077,250.174 c -23.511,2.358 -30.836,-32.213 -8.157,-34.737 23.695,-2.691 32.055,32.362 8.157,34.737 z"
   id="path334" />
				</g>
			</g>
			<g
   id="g352">
				<g
   id="g344">
					<path
   d="m 1355.893,381.706 c 0,0 11.622,-23.538 18.618,-38.429 2.242,-4.815 -9.596,7.717 -17.901,15.996 -64.623,89.89 -64.37,88.679 -70.437,82.738 -11.417,-10.938 -11.89,1.853 48.684,-86.096 -70.492,61.232 -69.784,66.746 -75.499,61.918 -12.443,-10.534 -13.08,-6.47 31.932,-48.504 47.554,-44.533 30.568,-25.56 52.573,-53.229 4.258,-5.355 -28.66,16.526 -35.478,21.004 -8.022,5.279 -14.377,-5.285 -6.983,-10.608 20.346,-14.491 31.018,-21.797 52.732,-35.988 7.403,-4.806 14.467,-0.765 20.701,4.849 32.004,28.383 33.982,16.853 -7.032,90.545 -3.977,7.087 -14.037,3.861 -11.91,-4.196 z"
   id="path340" />
					<path
   d="m 1409.412,300.488 c -4.688,4.996 -12.127,6.05 -18.55,3.457 -18.625,-7.373 -16.185,-33.431 2.527,-33.585 15.729,-0.054 26.215,19.266 16.023,30.128 z"
   id="path342" />
				</g>
				<g
   id="g350">
					<path
   d="m 1410.374,445.903 c -7.642,-5.429 -1.959,-7.614 24.205,-48.824 0.188,-0.294 -0.167,-0.666 -0.466,-0.487 -27.058,16.378 -9.467,0.735 -53.6,65.48 -1.873,2.715 -5.763,3.013 -7.7,0.604 -0.631,-0.817 -0.976,-1.199 -7.592,-9.023 -1.02,-1.207 0.933,-2.52 -37.812,23.756 -5.399,3.665 -8.326,-1.204 -11.654,-4.96 -4.092,-4.595 0.932,-8.172 14.287,-24.108 16.831,-20.045 16.187,-16.384 9.769,-22.818 -9.912,-10.144 -12.294,-8.518 42.857,-35.029 9.074,-4.336 11.788,-5.163 14.88,-9.165 14.393,-18.776 16.835,-18.005 -11.087,-3.616 -21.52,11.064 -22.233,12.646 -26.09,11.425 -3.297,-1.064 -6.319,-5.745 -4.063,-9.845 1.667,-3.023 26.677,-15.082 32.428,-17.903 40.179,-19.844 34.507,-20.832 54.176,1.144 17.208,19.402 17.709,17.418 7.32,34.613 -11.289,18.434 -19.987,31.681 -30.224,46.973 -2.045,3.024 -6.037,4.349 -9.634,1.783 z"
   id="path346" />
					<path
   d="m 1457.168,367.443 c -23.064,-2.806 -23.339,-38.1 -0.301,-35.636 23.73,2.535 24.025,38.782 0.301,35.636 z"
   id="path348" />
				</g>
			</g>
			<g
   id="g366">
				<g
   id="g358">
					<path
   d="m 1454.17,500.032 c 35.417,-42.517 32.001,-37.435 4.709,-20.305 -24.193,21.562 -52.866,46.096 -77.904,66.65 -6.266,5.131 -9.663,-2.32 -12.473,-6.598 -4.236,-6.268 1.761,-5.391 69.927,-68.156 -82.908,44.449 -82.914,49.591 -87.336,43.675 -3.049,-3.969 -9.089,-9.696 -2.139,-13.953 107.578,-65.781 70.183,-36.987 107.055,-66.546 0.563,-0.451 0.025,-1.383 -0.661,-1.149 -37.576,12.708 -44.601,18.802 -47.436,10.242 -2.295,-6.902 0.652,-8.366 63.723,-31.737 12.062,-4.425 17.831,7.018 34.085,30.456 3.535,5.005 3.798,12.272 -0.216,17.174 -5.136,6.231 -20.287,24.831 -41.629,48.404 -6.143,6.805 -15.829,-0.812 -9.705,-8.157 z"
   id="path354" />
					<path
   d="m 1523.406,434.082 c -17.901,11.99 -38.822,-17.427 -21.619,-30.401 17.549,-13.233 39.892,18.164 21.619,30.401 z"
   id="path356" />
				</g>
				<g
   id="g364">
					<path
   d="m 1492.085,576.122 c -5.902,-6.639 1.225,-10.212 17.419,-25.672 15.806,-15.159 18.539,-17.734 16.667,-17.12 -26.783,8.887 -14.883,2.243 -44.836,31.159 -10.898,10.574 -21.983,20.769 -21.983,20.769 -2.423,2.227 -6.297,1.661 -7.671,-1.105 -3.216,-6.481 -2.064,-4.225 -5.365,-10.49 -0.761,-1.441 -0.845,-1.107 -22.022,6.991 -19.323,7.368 -24.378,10.998 -27.464,5.63 -2.471,-4.415 -6.075,-8.733 -0.845,-12.637 37.518,-28.032 35.591,-26.612 34.799,-27.953 -5.541,-9.377 -4.366,-7.425 -6.049,-10.115 -1.638,-2.62 -0.081,-6.201 3.095,-7.083 60.788,-16.517 60.086,-13.237 66.069,-18.172 10.667,-8.864 15.044,-12.158 13.028,-11.683 -22.483,5.322 -38.337,9.728 -45.925,11.81 -9.438,1.427 -11.581,-11.19 -3.306,-13.411 12.053,-3.29 33.308,-8.606 54.271,-13.212 19.506,-4.213 16.967,-7.435 38.392,33.154 4.695,8.911 3.038,11.019 -48.545,59.576 -2.625,2.452 -6.809,2.944 -9.729,-0.436 z"
   id="path360" />
					<path
   d="m 1568.083,509.4 c -12.662,6.627 -28.996,-6.645 -25.775,-22.407 1.957,-9.563 11.021,-15.004 20.443,-11.813 14.91,5.046 18.863,27.137 5.332,34.22 z"
   id="path362" />
				</g>
			</g>
			<g
   id="g380">
				<g
   id="g372">
					<path
   d="m 1522.661,638.662 c 9.094,-6.952 19.034,-14.639 32.164,-25.383 0.56,-0.458 0.05,-1.406 -0.631,-1.168 -41.042,14.306 -2.396,-0.68 -98.9,48.175 -11.77,5.916 -19.745,11.649 -22.477,4.699 -2.202,-5.788 -5.114,-10.435 0.505,-13.416 25.638,-13.504 55.2,-29.739 80.317,-44.101 -99.286,27.528 -91.499,30.828 -96.286,19.84 -0.686,-1.464 -4.985,-8.266 2.457,-10.777 121.13,-40.77 76.009,-20.132 119.205,-41.06 0.649,-0.315 0.348,-1.351 -0.369,-1.277 -42.593,4.434 -43.041,6.405 -46.581,3.37 -2.389,-2.08 -3.006,-6.565 0.369,-9.375 2.052,-1.704 3.193,-1.603 13.556,-3.408 67.814,-11.597 62.438,-12.927 73.998,15.159 9.18,22.477 11.514,23.408 -6.172,37.037 -13.896,10.597 -29.445,21.983 -43.473,31.788 -7.488,5.251 -15.32,-4.31 -7.682,-10.103 z"
   id="path368" />
					<path
   d="m 1592.072,589.007 c -20.723,-10.243 -9.182,-43.067 11.337,-33.291 21.241,10.127 9.743,43.9 -11.337,33.291 z"
   id="path370" />
				</g>
				<g
   id="g378">
					<path
   d="m 1542.579,721.298 c -4.19,-8.014 3.934,-9.935 22.732,-21.117 27.02,-16.03 26.392,-13.558 2.831,-11.323 -8.15,0.805 -7.188,4.211 -59.471,34.002 -2.857,1.626 -6.515,0.21 -7.247,-2.79 0,0 -0.698,-2.861 -1.395,-5.723 -1.343,-5.787 -1.516,-6.929 -3.092,-6.721 -13.531,1.771 -29.292,3.976 -42.79,5.988 -6.066,0.896 -6.787,-4.314 -8.338,-9.506 -1.751,-5.877 4.631,-7.044 23.413,-15.511 21.204,-9.53 20.96,-9.173 20.471,-10.677 l -3.636,-11.204 c -0.969,-2.932 1.292,-6.053 4.605,-6.21 62.468,-2.536 61.472,0.558 68.467,-2.945 12.397,-6.265 17.359,-8.481 15.293,-8.468 -12.999,0.094 -27.281,0.435 -39.992,0.923 -5.523,0.232 -13.746,1.861 -14.26,-6.261 -0.286,-4.486 3.046,-7.1 6.606,-7.226 25.475,-0.956 45.934,-0.894 66.22,-0.591 4.436,0.077 8.538,2.803 10.724,9.566 13.834,46.359 22.029,35.219 -51.741,78.395 -3.067,1.78 -7.277,1.378 -9.4,-2.601 z"
   id="path374" />
					<path
   d="m 1641.581,664.849 c -6.233,12.881 -23.374,11.337 -29.639,-1.699 -8.171,-16.666 7.571,-33.684 22.126,-24.427 8.122,5.111 12.072,16.713 7.513,26.126 z"
   id="path376" />
				</g>
			</g>
			<g
   id="g394">
				<g
   id="g386">
					<path
   d="m 1556.917,789.948 c 0,0 25.427,-11.911 38.503,-18.39 4.874,-2.414 -12.74,0.084 -23.955,1.317 -25.876,7.362 -56.46,15.503 -83.58,22.219 -11.052,2.707 -21.868,7.161 -22.943,-0.456 -2.46,-17.517 -9.649,-7.353 91.634,-37.965 -93.202,3.83 -96.224,8.63 -97.628,1.279 -1.052,-5.52 -3.659,-12.693 4.16,-13.473 38.051,-3.77 69.012,-5.955 102.214,-7.999 31.808,-7.285 30.976,-5.999 2.696,-9.003 -19.994,-2.157 -20.4,-1.814 -22.061,-2.338 -6.566,-2.074 -5.801,-9.187 -1.223,-11.502 4.301,-2.17 63.409,3.519 67.7,3.949 12.129,1.147 12.796,14.053 14.972,27.124 2.025,12.244 5.964,25.364 -5.218,30.529 -18.439,8.46 -36.794,16.611 -58.564,25.423 -7.421,3.017 -13.559,-5.625 -6.707,-10.714 z"
   id="path382" />
					<path
   d="m 1637.158,756.248 c -21.117,-17.439 8.136,-49.861 23.114,-24.601 10.252,17.997 -8.389,36.89 -23.114,24.601 z"
   id="path384" />
				</g>
				<g
   id="g392">
					<path
   d="m 1559.43,874.139 c -2.447,-8.582 5.523,-8.692 26.823,-15.567 29.87,-9.616 28.726,-7.345 5.26,-10.404 -8.037,-1.017 -10.365,3.211 -65.546,19.949 -10.957,3.319 -3.792,-17.093 -8.05,-17.493 -51.943,-4.682 -48.148,-0.788 -49.056,-14.86 -0.422,-6.619 5.209,-5.454 47.444,-14.262 0.737,-0.154 1.24,-0.794 1.177,-1.498 -1.817,-20.488 -5.4,-19.327 34.474,-10.929 31.703,6.629 31.702,8.064 37.755,6.59 13.483,-3.337 18.815,-4.389 16.798,-4.837 -47.26,-10.462 -53.216,-7.941 -51.685,-17.326 1.394,-8.57 6.511,-6.512 52.331,3.758 21.321,5.029 27.636,4.358 28.713,16.607 2.159,32.687 3.692,40.156 -5.189,43.452 -26.983,10.058 -46.532,16.263 -62.617,21.451 -3.414,1.104 -7.412,-0.226 -8.632,-4.631 z"
   id="path388" />
					<path
   d="m 1668.46,841.11 c -9.548,11.87 -27.839,5.221 -29.088,-11.941 -1.032,-16.452 16.625,-26.215 27.595,-15.142 6.586,6.594 8.185,18.705 1.493,27.083 z"
   id="path390" />
				</g>
			</g>
		</g></g>
</g></g><g
   id="g6295"
   style="display:inline"><rect
   style="fill:#ff6600;fill-opacity:1;stroke:none;stroke-width:0.164423;stroke-linecap:round;stroke-linejoin:round"
   id="rect3738"
   width="120"
   height="120"
   x="812.90649"
   y="812.987" /><rect
   style="fill:#ff6600;fill-opacity:1;stroke:none;stroke-width:0.164425;stroke-linecap:round;stroke-linejoin:round"
   id="rect3740"
   width="120"
   height="120"
   x="1174.5331"
   y="-59.943024"
   transform="rotate(45)" /><circle
   style="display:inline;fill:#ff6600;fill-opacity:1;stroke:none;stroke-width:0.0518497;stroke-linecap:round;stroke-linejoin:round"
   id="path3216"
   cx="872.90649"
   cy="872.987"
   r="70" />
     </g>
   </g></g></svg>
