<?xml version="1.0" encoding="UTF-8" standalone="no"?>
<!-- Created with Inkscape (http://www.inkscape.org/) -->

<svg
   width="128"
   height="64"
   viewBox="0 0 33.866667 16.933333"
   version="1.1"
   id="svg317"
   inkscape:version="1.2.2 (1:1.2.2+202305151914+b0a8486541)"
   sodipodi:docname="liveriden-logo.svg"
   inkscape:export-filename="../liveriden-logo.svg"
   inkscape:export-xdpi="19.143467"
   inkscape:export-ydpi="19.143467"
   xmlns:inkscape="http://www.inkscape.org/namespaces/inkscape"
   xmlns:sodipodi="http://sodipodi.sourceforge.net/DTD/sodipodi-0.dtd"
   xmlns:xlink="http://www.w3.org/1999/xlink"
   xmlns="http://www.w3.org/2000/svg"
   xmlns:svg="http://www.w3.org/2000/svg">
  <sodipodi:namedview
     id="namedview319"
     pagecolor="#ffffff"
     bordercolor="#000000"
     borderopacity="0.25"
     inkscape:showpageshadow="2"
     inkscape:pageopacity="0.0"
     inkscape:pagecheckerboard="false"
     inkscape:deskcolor="#d1d1d1"
     inkscape:document-units="px"
     showgrid="false"
     inkscape:zoom="3.6203867"
     inkscape:cx="64.772086"
     inkscape:cy="32.593203"
     inkscape:window-width="1280"
     inkscape:window-height="967"
     inkscape:window-x="0"
     inkscape:window-y="0"
     inkscape:window-maximized="1"
     inkscape:current-layer="layer1" />
  <defs
     id="defs314">
    <linearGradient
       id="linearGradient5492"
       inkscape:swatch="solid">
      <stop
         style="stop-color:#fe7600;stop-opacity:1;"
         offset="0"
         id="stop5490" />
    </linearGradient>
    <linearGradient
       id="linearGradient5372"
       inkscape:swatch="solid">
      <stop
         style="stop-color:#fe7600;stop-opacity:1;"
         offset="0"
         id="stop5370" />
    </linearGradient>
    <rect
       x="70.077011"
       y="442.62991"
       width="656.45746"
       height="194.71445"
       id="rect5312" />
    <linearGradient
       id="linearGradient5037"
       inkscape:swatch="solid">
      <stop
         style="stop-color:#fe7600;stop-opacity:1;"
         offset="0"
         id="stop5035" />
    </linearGradient>
    <linearGradient
       id="kot"
       inkscape:swatch="solid">
      <stop
         style="stop-color:#000000;stop-opacity:1;"
         offset="0"
         id="stop5029" />
    </linearGradient>
    <linearGradient
       id="liveriden"
       inkscape:swatch="solid">
      <stop
         style="stop-color:#fe7600;stop-opacity:1;"
         offset="0"
         id="stop4297" />
    </linearGradient>
    <rect
       x="205.26144"
       y="184.82858"
       width="939.65326"
       height="326.7702"
       id="rect375" />
    <linearGradient
       inkscape:collect="always"
       xlink:href="#liveriden"
       id="linearGradient5039"
       gradientUnits="userSpaceOnUse" />
    <linearGradient
       inkscape:collect="always"
       xlink:href="#kot"
       id="linearGradient5494"
       x1="-0.50006014"
       y1="90.227905"
       x2="339.16672"
       y2="90.227905"
       gradientUnits="userSpaceOnUse"
       gradientTransform="matrix(0.0996585,0,0,0.1447538,152.45783,82.189167)" />
    <linearGradient
       inkscape:collect="always"
       xlink:href="#liveriden"
       id="linearGradient5705"
       gradientUnits="userSpaceOnUse"
       gradientTransform="matrix(0.09343867,0,0,0.12663483,153.51105,83.824003)"
       x1="-0.50006014"
       y1="90.227905"
       x2="339.16672"
       y2="90.227905" />
    <linearGradient
       inkscape:collect="always"
       xlink:href="#kot"
       id="linearGradient382"
       gradientUnits="userSpaceOnUse"
       gradientTransform="matrix(0.80001915,0,0,0.80001861,96.518481,9.5527836)"
       x1="7.2423167"
       y1="97.13308"
       x2="155.34641"
       y2="97.13308" />
  </defs>
  <g
     inkscape:groupmode="layer"
     id="layer2"
     inkscape:label="Слой 1"
     style="fill:url(#linearGradient5039);fill-opacity:1;fill-rule:nonzero;stroke-width:1.00013;stroke-dasharray:none"
     transform="translate(-152.4,-86.783334)" />
  <g
     inkscape:label="Слой 2"
     inkscape:groupmode="layer"
     id="layer1"
     style="display:inline"
     transform="translate(-152.4,-86.783334)">
    <g
       id="g518">
      <path
         id="rect5256"
         style="fill:url(#linearGradient5494);stroke:#000000;stroke-width:0.0939"
         transform="translate(7.5000003e-7)"
         d="m 155.54968,86.830284 h 27.5673 c 1.71891,0 3.10273,1.383819 3.10273,3.102733 v 10.633973 c 0,1.71891 -1.38382,3.10273 -3.10273,3.10273 h -27.5673 c -1.71892,0 -3.10273,-1.38382 -3.10273,-3.10273 V 89.933017 c 0,-1.718914 1.38381,-3.102733 3.10273,-3.102733 z" />
      <path
         id="rect5703"
         style="fill:url(#linearGradient5705);stroke:#000000;stroke-width:0.0850422"
         transform="translate(7.5000003e-7)"
         d="m 156.21521,87.884186 h 26.23624 c 1.50376,0 2.71436,1.210604 2.71436,2.71436 v 9.302904 c 0,1.50376 -1.2106,2.71436 -2.71436,2.71436 h -26.23624 c -1.50375,0 -2.71436,-1.2106 -2.71436,-2.71436 v -9.302904 c 0,-1.503756 1.21061,-2.71436 2.71436,-2.71436 z" />
      <g
         aria-label="Liveriden"
         transform="matrix(0.26458333,0,0,0.26458333,-9.5317157,44.239707)"
         id="text373"
         style="font-size:40px;font-family:Uroob;-inkscape-font-specification:Uroob;text-align:center;letter-spacing:0.6px;white-space:pre;shape-inside:url(#rect375);shape-padding:0.532986;display:inline;stroke:#000000;stroke-width:1.00157">
        <path
           d="m 624.42617,215.83008 q -3.78906,0 -3.78906,-3.30078 v -21.66016 h 3.53516 v 20.625 q 0,0.78125 0.17578,1.03516 0.17578,0.2539 0.89843,0.2539 h 6.64063 v 3.04688 z"
           id="path522" />
        <path
           d="m 636.11992,191.08398 q 2.14844,0 2.14844,2.1875 0,2.20704 -2.14844,2.20704 -1.05469,0 -1.62109,-0.56641 -0.56641,-0.58594 -0.56641,-1.64063 0,-1.05468 0.56641,-1.62109 0.5664,-0.56641 1.62109,-0.56641 z m 1.64063,24.64844 h -3.35938 v -18.98437 h 3.35938 z"
           id="path524" />
        <path
           d="m 645.50899,215.71289 q -5.13672,-16.875 -5.13672,-17.65625 0,-0.78125 0.3125,-1.03516 0.33203,-0.2539 0.72265,-0.2539 h 2.16797 q 2.1875,8.18359 3.84766,14.55078 0.19531,-0.82031 3.49609,-14.55078 h 1.99219 q 0.68359,0 1.03516,0.625 0.11718,0.19531 0.11718,0.41015 0,0.21485 -0.19531,1.05469 -0.17578,0.82031 -0.48828,2.01172 -0.29297,1.19141 -0.68359,2.65625 -0.39063,1.46484 -0.82032,2.98828 -0.41015,1.52344 -0.82031,3.02735 -0.41016,1.48437 -0.99609,3.55468 -0.58594,2.07032 -0.72266,2.61719 z"
           id="path526" />
        <path
           d="m 669.07773,211.45508 q -0.0586,2.94922 -2.28515,4.02344 -0.74219,0.35156 -1.69922,0.35156 h -4.62891 q -1.73828,0 -2.87109,-1.25 -1.15235,-1.25 -1.15235,-3.00781 V 200.9082 q 0,-1.73828 1.05469,-2.98828 1.05469,-1.25 2.77344,-1.25 h 4.96094 q 1.73828,0 2.77343,1.32813 1.03516,1.32812 1.03516,3.10547 v 2.53906 q 0,1.71875 -0.95703,2.94922 -0.95703,1.21093 -2.65625,1.21093 h -5.70313 v 3.53516 q 0,1.5625 1.58204,1.5625 h 2.96875 q 0.66406,0 1.05468,-0.37109 0.41016,-0.39063 0.39063,-1.07422 z m -7.77343,-11.75781 q -1.58204,0 -1.58204,1.64062 v 3.57422 h 4.27735 q 0.74219,0 1.25,-0.41016 0.52734,-0.42968 0.52734,-1.23047 v -2.01171 q 0,-0.82032 -0.52734,-1.19141 -0.50781,-0.37109 -1.25,-0.37109 z"
           id="path528" />
        <path
           d="m 680.12695,199.67773 -1.97265,-0.0195 q -2.46094,0 -3.20313,1.77735 -0.2539,0.60547 -0.2539,1.38672 v 12.98828 h -3.33985 l -0.0195,-17.30469 q -0.85937,0 -0.85937,-0.64453 v -1.13281 h 3.84765 v 1.77734 q 0.27344,-0.78125 0.9961,-1.28906 0.72265,-0.50782 1.54297,-0.50782 h 3.26171 z"
           id="path530" />
        <path
           d="m 684.3793,191.08398 q 2.14843,0 2.14843,2.1875 0,2.20704 -2.14843,2.20704 -1.05469,0 -1.6211,-0.56641 -0.5664,-0.58594 -0.5664,-1.64063 0,-1.05468 0.5664,-1.62109 0.56641,-0.56641 1.6211,-0.56641 z m 1.64062,24.64844 h -3.35937 v -18.98437 h 3.35937 z"
           id="path532" />
        <path
           d="m 695.74101,196.76758 q 1.17188,0 2.14844,0.58594 v -6.38672 h 3.35938 v 24.76562 h -3.06641 v -0.91797 q -1.26953,0.91797 -2.83203,0.91797 h -1.36719 q -2.5,0 -3.96484,-1.62109 -1.48438,-1.6211 -1.48438,-4.14063 v -7.42187 q 0,-4.10156 2.75391,-5.35156 0.95703,-0.42969 2.30469,-0.42969 z m 2.14844,14.64844 v -10.41016 q 0,-0.56641 -0.52734,-0.95703 -0.52735,-0.39063 -1.07422,-0.39063 h -2.07031 q -2.01172,0 -2.26563,1.91407 -0.0781,0.58593 -0.0781,1.23046 v 7.10938 q 0.0195,1.52344 0.33203,2.01172 0.60547,0.9375 2.01172,0.9375 h 1.67968 q 1.07422,0 1.77735,-0.85938 0.21484,-0.27343 0.21484,-0.58593 z"
           id="path534" />
        <path
           d="m 716.39961,211.45508 q -0.0586,2.94922 -2.28516,4.02344 -0.74219,0.35156 -1.69922,0.35156 h -4.62891 q -1.73828,0 -2.87109,-1.25 -1.15234,-1.25 -1.15234,-3.00781 V 200.9082 q 0,-1.73828 1.05468,-2.98828 1.05469,-1.25 2.77344,-1.25 h 4.96094 q 1.73828,0 2.77344,1.32813 1.03515,1.32812 1.03515,3.10547 v 2.53906 q 0,1.71875 -0.95703,2.94922 -0.95703,1.21093 -2.65625,1.21093 h -5.70312 v 3.53516 q 0,1.5625 1.58203,1.5625 h 2.96875 q 0.66406,0 1.05469,-0.37109 0.41015,-0.39063 0.39062,-1.07422 z m -7.77344,-11.75781 q -1.58203,0 -1.58203,1.64062 v 3.57422 h 4.27734 q 0.74219,0 1.25,-0.41016 0.52734,-0.42968 0.52734,-1.23047 v -2.01171 q 0,-0.82032 -0.52734,-1.19141 -0.50781,-0.37109 -1.25,-0.37109 z"
           id="path536" />
        <path
           d="m 721.64805,197.91992 q 1.13281,-1.13281 2.28516,-1.13281 h 3.32031 q 1.69922,0 2.92969,1.15234 1.23046,1.15235 1.23046,2.8711 v 15 h -3.33984 v -14.35547 q 0,-0.74219 -0.42969,-1.25 -0.41015,-0.52735 -1.21093,-0.52735 h -2.85157 q -1.15234,-0.0195 -1.46484,1.42579 -0.0781,0.39062 -0.0977,0.74218 v 13.96485 h -3.33984 l -0.0195,-19.02344 h 2.98828 z"
           id="path538" />
      </g>
      <g
         aria-label="^ↀᴥↀ^"
         transform="scale(1.0481447,0.95406675)"
         id="text5318"
         style="font-size:6.35px;font-family:'Ubuntu Mono';-inkscape-font-specification:'Ubuntu Mono';text-align:center;letter-spacing:0.687917px;text-anchor:middle;display:inline;fill:url(#linearGradient382);stroke:#000000;stroke-width:0.80011">
        <path
           d="m 149.85147,94.135855 1.09855,1.9304 -0.4191,0.2159 -0.9144,-1.6002 -0.9144,1.6002 -0.4191,-0.2159 1.09855,-1.9304 z"
           id="path541" />
        <path
           d="m 154.57797,98.066505 q -1.12395,0 -1.7526,-0.5842 -0.62865,-0.59055 -0.62865,-1.74625 0,-0.73025 0.27305,-1.22555 0.2794,-0.50165 0.78105,-0.75565 0.508,-0.253999 1.1938,-0.253999 h 2.26695 q 0.6858,0 1.18745,0.253999 0.508,0.254 0.78105,0.75565 0.2794,0.4953 0.2794,1.22555 0,1.1557 -0.62865,1.74625 -0.62865,0.5842 -1.7526,0.5842 z m 0.0508,-0.55245 h 0.64135 v -3.46075 h -0.762 q -0.79375,0 -1.2319,0.41275 -0.43815,0.41275 -0.43815,1.28905 0,1.75895 1.7907,1.75895 z m 1.2573,0 h 0.64135 q 1.7907,0 1.7907,-1.75895 0,-0.8763 -0.43815,-1.28905 -0.4318,-0.41275 -1.2319,-0.41275 h -0.762 z"
           id="path543" />
        <path
           d="m 161.93338,97.069555 q 0.24765,0.3302 0.4445,0.46355 0.2032,0.13335 0.31115,0.13335 0.1143,0 0.2032,-0.01905 0.0889,-0.01905 0.1651,-0.04445 v 0.4445 q -0.0699,0.0381 -0.1905,0.05715 -0.1143,0.0254 -0.2286,0.0254 -0.13335,0 -0.2921,-0.05715 -0.15875,-0.0508 -0.34925,-0.2032 -0.1905,-0.15875 -0.4318,-0.46355 -0.3429,0.4445 -0.6096,0.5842 -0.26035,0.1397 -0.47625,0.1397 -0.1143,0 -0.23495,-0.0254 -0.1143,-0.01905 -0.1905,-0.05715 v -0.4445 q 0.0381,0.0127 0.14605,0.0381 0.10795,0.0254 0.19685,0.0254 0.1524,0 0.3429,-0.127 0.1905,-0.13335 0.4445,-0.4699 -0.3302,-0.34925 -0.53975,-0.6985 -0.2032,-0.34925 -0.2032,-0.6985 0,-0.3048 0.1397,-0.53975 0.1397,-0.2413 0.38735,-0.381 0.254,-0.1397 0.5969,-0.1397 0.3429,0 0.59055,0.1397 0.254,0.1397 0.38735,0.381 0.1397,0.23495 0.1397,0.53975 0,0.2413 -0.10795,0.48895 -0.10795,0.2413 -0.2794,0.4699 -0.1651,0.2286 -0.36195,0.43815 z"
           id="path545" />
        <path
           d="m 166.5329,98.066505 q -1.12395,0 -1.7526,-0.5842 -0.62865,-0.59055 -0.62865,-1.74625 0,-0.73025 0.27305,-1.22555 0.2794,-0.50165 0.78105,-0.75565 0.508,-0.253999 1.1938,-0.253999 h 2.26695 q 0.6858,0 1.18745,0.253999 0.508,0.254 0.78105,0.75565 0.2794,0.4953 0.2794,1.22555 0,1.1557 -0.62865,1.74625 -0.62865,0.5842 -1.7526,0.5842 z m 0.0508,-0.55245 h 0.64135 v -3.46075 h -0.762 q -0.79375,0 -1.2319,0.41275 -0.43815,0.41275 -0.43815,1.28905 0,1.75895 1.7907,1.75895 z m 1.2573,0 h 0.64135 q 1.7907,0 1.7907,-1.75895 0,-0.8763 -0.43815,-1.28905 -0.4318,-0.41275 -1.2319,-0.41275 h -0.762 z"
           id="path547" />
        <path
           d="m 173.72956,94.135855 1.09855,1.9304 -0.4191,0.2159 -0.9144,-1.6002 -0.9144,1.6002 -0.4191,-0.2159 1.09855,-1.9304 z"
           id="path549" />
      </g>
    </g>
  </g>
</svg>
