<?xml version="1.0" encoding="UTF-8" standalone="no"?>
<!-- Created with Inkscape (http://www.inkscape.org/) -->

<svg
   width="128"
   height="63.999996"
   viewBox="0 0 33.866667 16.933332"
   version="1.1"
   id="svg317"
   inkscape:version="1.2.2 (1:1.2.2+202305151914+b0a8486541)"
   sodipodi:docname="liveriden-logo-77.svg"
   inkscape:export-filename="../liveriden-logo.svg"
   inkscape:export-xdpi="19.143467"
   inkscape:export-ydpi="19.143467"
   xmlns:inkscape="http://www.inkscape.org/namespaces/inkscape"
   xmlns:sodipodi="http://sodipodi.sourceforge.net/DTD/sodipodi-0.dtd"
   xmlns:xlink="http://www.w3.org/1999/xlink"
   xmlns="http://www.w3.org/2000/svg"
   xmlns:svg="http://www.w3.org/2000/svg">
  <sodipodi:namedview
     id="namedview319"
     pagecolor="#ffffff"
     bordercolor="#000000"
     borderopacity="0.25"
     inkscape:showpageshadow="2"
     inkscape:pageopacity="0.0"
     inkscape:pagecheckerboard="false"
     inkscape:deskcolor="#d1d1d1"
     inkscape:document-units="px"
     showgrid="false"
     inkscape:zoom="5.3828135"
     inkscape:cx="63.999988"
     inkscape:cy="31.95355"
     inkscape:window-width="1280"
     inkscape:window-height="967"
     inkscape:window-x="0"
     inkscape:window-y="0"
     inkscape:window-maximized="1"
     inkscape:current-layer="g518" />
  <defs
     id="defs314">
    <linearGradient
       id="linearGradient5492"
       inkscape:swatch="solid">
      <stop
         style="stop-color:#fe7600;stop-opacity:1;"
         offset="0"
         id="stop5490" />
    </linearGradient>
    <linearGradient
       id="linearGradient5372"
       inkscape:swatch="solid">
      <stop
         style="stop-color:#fe7600;stop-opacity:1;"
         offset="0"
         id="stop5370" />
    </linearGradient>
    <linearGradient
       id="linearGradient5037"
       inkscape:swatch="solid">
      <stop
         style="stop-color:#fe7600;stop-opacity:1;"
         offset="0"
         id="stop5035" />
    </linearGradient>
    <linearGradient
       id="kot"
       inkscape:swatch="solid">
      <stop
         style="stop-color:#000000;stop-opacity:1;"
         offset="0"
         id="stop5029" />
    </linearGradient>
    <linearGradient
       id="liveriden"
       inkscape:swatch="solid">
      <stop
         style="stop-color:#fe7600;stop-opacity:1;"
         offset="0"
         id="stop4297" />
    </linearGradient>
    <rect
       x="205.26144"
       y="184.82858"
       width="939.65326"
       height="326.7702"
       id="rect375" />
    <linearGradient
       inkscape:collect="always"
       xlink:href="#kot"
       id="linearGradient5494"
       x1="-0.50006014"
       y1="90.227905"
       x2="339.16672"
       y2="90.227905"
       gradientUnits="userSpaceOnUse"
       gradientTransform="matrix(0.0996585,0,0,0.1447538,152.45783,82.189167)" />
    <linearGradient
       inkscape:collect="always"
       xlink:href="#liveriden"
       id="linearGradient5705"
       gradientUnits="userSpaceOnUse"
       gradientTransform="matrix(0.09343867,0,0,0.12663483,153.51105,83.824003)"
       x1="-0.50006014"
       y1="90.227905"
       x2="339.16672"
       y2="90.227905" />
    <linearGradient
       inkscape:collect="always"
       xlink:href="#kot"
       id="linearGradient3899"
       gradientUnits="userSpaceOnUse"
       gradientTransform="matrix(0.80001915,0,0,0.80001861,96.518217,17.232148)"
       x1="7.2423167"
       y1="97.13308"
       x2="155.34641"
       y2="97.13308" />
    <linearGradient
       inkscape:collect="always"
       xlink:href="#kot"
       id="linearGradient4823"
       gradientUnits="userSpaceOnUse"
       gradientTransform="matrix(0.80001915,0,0,0.80001861,96.518217,17.232148)"
       x1="7.2423167"
       y1="97.13308"
       x2="155.34641"
       y2="97.13308" />
    <linearGradient
       inkscape:collect="always"
       xlink:href="#kot"
       id="linearGradient4825"
       gradientUnits="userSpaceOnUse"
       gradientTransform="matrix(0.80001915,0,0,0.80001861,96.518217,17.232148)"
       x1="7.2423167"
       y1="97.13308"
       x2="155.34641"
       y2="97.13308" />
    <linearGradient
       inkscape:collect="always"
       xlink:href="#kot"
       id="linearGradient4827"
       gradientUnits="userSpaceOnUse"
       gradientTransform="matrix(0.80001915,0,0,0.80001861,96.518217,17.232148)"
       x1="7.2423167"
       y1="97.13308"
       x2="155.34641"
       y2="97.13308" />
    <linearGradient
       inkscape:collect="always"
       xlink:href="#kot"
       id="linearGradient4829"
       gradientUnits="userSpaceOnUse"
       gradientTransform="matrix(0.80001915,0,0,0.80001861,96.518217,17.232148)"
       x1="7.2423167"
       y1="97.13308"
       x2="155.34641"
       y2="97.13308" />
    <linearGradient
       inkscape:collect="always"
       xlink:href="#kot"
       id="linearGradient4831"
       gradientUnits="userSpaceOnUse"
       gradientTransform="matrix(0.80001915,0,0,0.80001861,96.518217,17.232148)"
       x1="7.2423167"
       y1="97.13308"
       x2="155.34641"
       y2="97.13308" />
  </defs>
  <g
     id="g518"
     style="display:inline"
     transform="translate(-152.4,-86.783333)">
    <g
       id="g4462"
       sodipodi:insensitive="true">
      <path
         id="rect5256"
         style="fill:url(#linearGradient5494);stroke:#000000;stroke-width:0.0939"
         d="m 155.54968,86.830284 h 27.5673 c 1.71891,0 3.10273,1.383819 3.10273,3.102733 v 10.633973 c 0,1.71891 -1.38382,3.10273 -3.10273,3.10273 h -27.5673 c -1.71892,0 -3.10273,-1.38382 -3.10273,-3.10273 V 89.933017 c 0,-1.718914 1.38381,-3.102733 3.10273,-3.102733 z" />
      <path
         id="rect5703"
         style="fill:url(#linearGradient5705);stroke:#000000;stroke-width:0.0850422"
         d="m 156.21521,87.884186 h 26.23624 c 1.50376,0 2.71436,1.210604 2.71436,2.71436 v 9.302904 c 0,1.50376 -1.2106,2.71436 -2.71436,2.71436 h -26.23624 c -1.50375,0 -2.71436,-1.2106 -2.71436,-2.71436 v -9.302904 c 0,-1.503756 1.21061,-2.71436 2.71436,-2.71436 z" />
    </g>
    <g
       aria-label="^ↀᴥↀ^"
       transform="scale(1.0481447,0.95406675)"
       id="text5318"
       style="font-size:6.35px;font-family:FreeMono;-inkscape-font-specification:FreeMono;text-align:center;letter-spacing:0.687917px;text-anchor:middle;display:inline;fill:url(#linearGradient3899);stroke:#000000;stroke-width:0.80011">
      <path
         d="m 148.99713,101.84062 1.1303,1.41605 q 0.0572,0.0635 0.0572,0.1143 0,0.0508 -0.0381,0.0889 -0.0381,0.0381 -0.0889,0.0381 -0.0635,0 -0.127,-0.0825 l -0.93345,-1.17475 -0.93345,1.17475 q -0.0572,0.0825 -0.127,0.0825 -0.0508,0 -0.0889,-0.0381 -0.0381,-0.0381 -0.0381,-0.0889 0,-0.0508 0.0572,-0.1143 z"
         id="path4466"
         style="display:inline;fill:url(#linearGradient4823)"
         sodipodi:insensitive="true" />
      <path
         d="m 154.27609,105.74587 q -1.12395,0 -1.7526,-0.5842 -0.62865,-0.59055 -0.62865,-1.74625 0,-0.73025 0.27305,-1.22555 0.2794,-0.50165 0.78105,-0.75565 0.508,-0.254 1.1938,-0.254 h 2.26695 q 0.6858,0 1.18745,0.254 0.508,0.254 0.78105,0.75565 0.2794,0.4953 0.2794,1.22555 0,1.1557 -0.62865,1.74625 -0.62865,0.5842 -1.7526,0.5842 z m 0.0508,-0.55245 h 0.64135 v -3.46075 h -0.762 q -0.79375,0 -1.2319,0.41275 -0.43815,0.41275 -0.43815,1.28905 0,1.75895 1.7907,1.75895 z m 1.2573,0 h 0.64135 q 1.7907,0 1.7907,-1.75895 0,-0.8763 -0.43815,-1.28905 -0.4318,-0.41275 -1.2319,-0.41275 h -0.762 z"
         id="path4468"
         sodipodi:insensitive="true"
         style="fill:url(#linearGradient4825)" />
      <path
         d="m 160.4758,105.80937 c -0.0762,0 -0.15452,-0.008 -0.23495,-0.0254 -0.0762,-0.0127 -0.1397,-0.0317 -0.1905,-0.0571 v -0.4445 c 0.0254,0.008 0.0741,0.0212 0.14605,0.0381 0.072,0.0169 0.13758,0.0254 0.19685,0.0254 0.1016,0 0.2159,-0.0423 0.3429,-0.127 0.127,-0.0889 0.27517,-0.24553 0.4445,-0.4699 -0.22013,-0.23283 -0.40005,-0.46567 -0.53975,-0.6985 -0.13547,-0.23283 -0.2032,-0.46567 -0.2032,-0.6985 0,-0.20743 0.0466,-0.39158 0.1397,-0.55245 0.0931,-0.16087 0.22225,-0.28787 0.38735,-0.381 0.16933,-0.0974 0.3683,-0.14605 0.5969,-0.14605 0.2286,0 0.42545,0.0487 0.59055,0.14605 0.16933,0.0931 0.29845,0.22013 0.38735,0.381 0.0931,0.16087 0.1397,0.34502 0.1397,0.55245 0,0.16087 -0.036,0.32385 -0.10795,0.48895 -0.072,0.16087 -0.1651,0.3175 -0.2794,0.4699 -0.11007,0.1524 -0.23072,0.29845 -0.36195,0.43815 0.1651,0.22013 0.31327,0.37465 0.4445,0.46355 0.13547,0.0889 0.23918,0.13335 0.31115,0.13335 0.0762,0 0.14393,-0.006 0.2032,-0.0191 0.0593,-0.0127 0.1143,-0.0275 0.1651,-0.0444 v 0.4445 c -0.0466,0.0254 -0.1101,0.0444 -0.1905,0.0571 -0.0762,0.0169 -0.1524,0.0254 -0.2286,0.0254 -0.0889,0 -0.18627,-0.0191 -0.2921,-0.0572 -0.10583,-0.0339 -0.22225,-0.1016 -0.34925,-0.2032 -0.127,-0.10583 -0.27093,-0.26035 -0.4318,-0.46355 -0.2286,0.29633 -0.4318,0.49107 -0.6096,0.5842 -0.1545,0.09 -0.29424,0.12806 -0.47625,0.13975 z"
         id="path4470"
         sodipodi:nodetypes="ccccsscccsscsccsccccsccccsccccc"
         sodipodi:insensitive="true"
         style="fill:url(#linearGradient4827)" />
      <path
         d="m 166.83426,105.74587 q -1.12395,0 -1.7526,-0.5842 -0.62865,-0.59055 -0.62865,-1.74625 0,-0.73025 0.27305,-1.22555 0.2794,-0.50165 0.78105,-0.75565 0.508,-0.254 1.1938,-0.254 h 2.26695 q 0.6858,0 1.18745,0.254 0.508,0.254 0.78105,0.75565 0.2794,0.4953 0.2794,1.22555 0,1.1557 -0.62865,1.74625 -0.62865,0.5842 -1.7526,0.5842 z m 0.0508,-0.55245 h 0.64135 v -3.46075 h -0.762 q -0.79375,0 -1.2319,0.41275 -0.43815,0.41275 -0.43815,1.28905 0,1.75895 1.7907,1.75895 z m 1.2573,0 h 0.64135 q 1.7907,0 1.7907,-1.75895 0,-0.8763 -0.43815,-1.28905 -0.4318,-0.41275 -1.2319,-0.41275 h -0.762 z"
         id="path4472"
         sodipodi:insensitive="true"
         style="fill:url(#linearGradient4829)" />
      <path
         d="m 174.11347,101.84062 1.1303,1.41605 q 0.0571,0.0635 0.0571,0.1143 0,0.0508 -0.0381,0.0889 -0.0381,0.0381 -0.0889,0.0381 -0.0635,0 -0.127,-0.0825 l -0.93345,-1.17475 -0.93345,1.17475 q -0.0572,0.0825 -0.127,0.0825 -0.0508,0 -0.0889,-0.0381 -0.0381,-0.0381 -0.0381,-0.0889 0,-0.0508 0.0572,-0.1143 z"
         id="path4474"
         sodipodi:insensitive="true"
         style="fill:url(#linearGradient4831)" />
    </g>
    <g
       aria-label="Liveriden"
       transform="matrix(0.31780884,0,0,0.26295187,-45.234135,41.118358)"
       id="text373"
       style="font-weight:bold;font-size:20px;font-family:FreeSans;-inkscape-font-specification:'FreeSans Bold';text-align:center;letter-spacing:0.6px;white-space:pre;shape-inside:url(#rect375);shape-padding:0.532986;display:inline;stroke:#000000;stroke-width:1.00157">
      <path
         d="m 632.158,189.28133 v 12.08 h 6.98 v 2.5 h -9.98 v -14.58 z"
         id="path4477"
         sodipodi:insensitive="true" />
      <path
         d="m 644.73799,193.06133 v 10.8 h -2.8 v -10.8 z m 0,-3.78 v 2.5 h -2.8 v -2.5 z"
         id="path4479"
         sodipodi:insensitive="true"
         style="display:none" />
      <path
         d="m 644.73798,193.06133 v 10.8 h -2.79999 v -10.8 z"
         id="path4479-6"
         style="font-weight:bold;font-size:20px;font-family:FreeSans;-inkscape-font-specification:'FreeSans Bold';text-align:center;letter-spacing:0.6px;white-space:pre;shape-inside:url(#rect375);shape-padding:0.532986;display:inline;stroke:#000000;stroke-width:1.00157"
         inkscape:label="path4479-1"
         sodipodi:nodetypes="ccccc"
         sodipodi:insensitive="true" />
      <path
         d="m 644.06078,187.66124 v 2.23862 h -1.44559 v -2.23862 z"
         style="font-weight:bold;font-size:20px;font-family:FreeSans;-inkscape-font-specification:'FreeSans Bold';text-align:center;letter-spacing:0.6px;white-space:pre;shape-inside:url(#rect375);shape-padding:0.532986;display:inline;stroke:#000000;stroke-width:2.35571"
         id="path4537"
         inkscape:label="path4479-2"
         sodipodi:insensitive="true" />
      <path
         d="m 653.65797,203.86133 h -2.94 l -3.78,-10.8 h 2.96 l 2.34,7.9 2.18,-7.9 h 2.96 z"
         id="path4481"
         sodipodi:insensitive="true" />
      <path
         d="m 663.97796,192.88133 q 0.7,0 1.36,0.16 0.66,0.16 1.34,0.58 0.7,0.42 1.2,1.08 0.52,0.64 0.84,1.72 0.32,1.06 0.32,2.44 0,0.24 -0.02,0.48 h -7.24 q 0.02,0.62 0.1,1.08 0.1,0.44 0.32,0.88 0.24,0.42 0.68,0.66 0.46,0.22 1.14,0.22 1.6,0 2.14,-1.36 h 2.76 q -0.46,1.6 -1.82,2.56 -1.36,0.94 -3.18,0.94 -2.3,0 -3.62,-1.48 -1.32,-1.5 -1.32,-4.1 0,-2.72 1.34,-4.28 1.34,-1.58 3.66,-1.58 z m 2.14,4.6 q -0.1,-1.18 -0.66,-1.82 -0.54,-0.64 -1.52,-0.64 -1.84,0 -2.12,2.46 z"
         id="path4483"
         sodipodi:insensitive="true" />
      <path
         d="m 671.73793,193.06133 h 2.8 v 2.12 q 0.44,-1.1 1.24,-1.7 0.8,-0.6 1.76,-0.6 0.18,0 0.34,0.02 v 2.84 q -0.5,-0.08 -0.88,-0.08 -2.46,0 -2.46,2.46 v 5.74 h -2.8 z"
         id="path4485"
         sodipodi:insensitive="true" />
      <path
         d="m 683.07789,193.06133 v 10.8 h -2.8 v -10.8 z m 0,-3.78 v 2.5 h -2.8 v -2.5 z"
         id="path4487"
         sodipodi:insensitive="true"
         style="display:none" />
      <path
         d="m 683.07788,193.06133 v 10.8 h -2.79999 v -10.8 z"
         id="path4573"
         style="font-weight:bold;font-size:20px;font-family:FreeSans;-inkscape-font-specification:'FreeSans Bold';text-align:center;letter-spacing:0.6px;white-space:pre;shape-inside:url(#rect375);shape-padding:0.532986;display:inline;stroke:#000000;stroke-width:1.00157"
         inkscape:label="path4479-1-1"
         sodipodi:nodetypes="ccccc"
         transform="translate(2.9292524e-6)"
         sodipodi:insensitive="true" />
      <path
         d="m 682.40068,187.66124 v 2.23862 h -1.44559 v -2.23862 z"
         style="font-weight:bold;font-size:20px;font-family:FreeSans;-inkscape-font-specification:'FreeSans Bold';text-align:center;letter-spacing:0.6px;white-space:pre;shape-inside:url(#rect375);shape-padding:0.532986;display:inline;stroke:#000000;stroke-width:2.35571"
         id="path4575"
         inkscape:label="path4479-2-2"
         transform="translate(2.9292524e-6)"
         sodipodi:insensitive="true" />
      <path
         d="m 690.41787,204.32133 q -2,0 -3.28,-1.64 -1.26,-1.64 -1.26,-4.06 0,-2.44 1.3,-4.08 1.3,-1.66 3.24,-1.66 1.96,0 2.98,1.58 v -5.18 h 2.8 v 14.58 h -2.8 v -1.1 q -1.04,1.56 -2.98,1.56 z m 0.62,-9.1 q -1.04,0 -1.7,0.96 -0.66,0.94 -0.66,2.44 0,1.48 0.66,2.42 0.66,0.94 1.7,0.94 1.04,0 1.7,-0.92 0.66,-0.92 0.66,-2.4 0,-1.54 -0.66,-2.48 -0.64,-0.96 -1.7,-0.96 z"
         id="path4489"
         sodipodi:insensitive="true" />
      <path
         d="m 703.89783,192.88133 q 0.7,0 1.36,0.16 0.66,0.16 1.34,0.58 0.7,0.42 1.2,1.08 0.52,0.64 0.84,1.72 0.32,1.06 0.32,2.44 0,0.24 -0.02,0.48 h -7.24 q 0.02,0.62 0.1,1.08 0.1,0.44 0.32,0.88 0.24,0.42 0.68,0.66 0.46,0.22 1.14,0.22 1.6,0 2.14,-1.36 h 2.76 q -0.46,1.6 -1.82,2.56 -1.36,0.94 -3.18,0.94 -2.3,0 -3.62,-1.48 -1.32,-1.5 -1.32,-4.1 0,-2.72 1.34,-4.28 1.34,-1.58 3.66,-1.58 z m 2.14,4.6 q -0.1,-1.18 -0.66,-1.82 -0.54,-0.64 -1.52,-0.64 -1.84,0 -2.12,2.46 z"
         id="path4491"
         sodipodi:insensitive="true" />
      <path
         d="m 711.6578,193.06133 h 2.8 v 1.56 q 1.16,-1.74 3.24,-1.74 1.72,0 2.66,0.98 0.96,0.98 0.96,2.76 v 7.24 h -2.8 v -6.66 q 0,-1.94 -1.8,-1.94 -1.02,0 -1.64,0.58 -0.62,0.58 -0.62,1.54 v 6.48 h -2.8 z"
         id="path4493"
         sodipodi:insensitive="true" />
    </g>
  </g>
</svg>
